<svg width="300" height="150" viewBox="0 0 300 150" fill="none" xmlns="http://www.w3.org/2000/svg">
<g clip-path="url(#clip0_801_334)">
<path d="M90 104.085L94.6473 92.2617H95.9117L100.444 104.085H99.2946L97.9316 100.374H92.5453L91.1495 104.085H90ZM92.923 99.4215H97.5539L95.2385 93.2142L92.923 99.4215ZM103.564 104.085H102.579V95.5789H103.564V96.8597H103.597C103.849 96.3671 104.21 95.9921 104.681 95.7349C105.152 95.4776 105.666 95.349 106.224 95.349C106.619 95.349 106.952 95.3927 107.226 95.4803C107.5 95.5679 107.732 95.6856 107.924 95.8334C108.116 95.9812 108.274 96.1536 108.4 96.3507C108.526 96.5477 108.633 96.7612 108.72 96.9911C109.005 96.4328 109.386 96.0195 109.862 95.7513C110.338 95.4831 110.883 95.349 111.496 95.349C112.076 95.349 112.538 95.4447 112.883 95.6363C113.228 95.8279 113.494 96.0797 113.68 96.3917C113.866 96.7037 113.989 97.0623 114.049 97.4673C114.109 97.8724 114.14 98.2884 114.14 98.7154V104.085H113.154V98.2063C113.154 97.5932 113.026 97.1115 112.768 96.7612C112.511 96.4109 112.032 96.2357 111.332 96.2357C110.97 96.2357 110.623 96.3151 110.289 96.4738C109.955 96.6326 109.662 96.8762 109.41 97.2046C109.301 97.3469 109.21 97.5139 109.139 97.7054C109.068 97.897 109.011 98.0968 108.967 98.3048C108.923 98.5128 108.893 98.7208 108.876 98.9288C108.86 99.1369 108.852 99.3284 108.852 99.5036V104.085H107.867V98.2063C107.867 97.5932 107.738 97.1115 107.481 96.7612C107.223 96.4109 106.744 96.2357 106.044 96.2357C105.683 96.2357 105.335 96.3151 105.001 96.4738C104.667 96.6326 104.374 96.8762 104.122 97.2046C104.013 97.3469 103.923 97.5139 103.852 97.7054C103.78 97.897 103.723 98.0968 103.679 98.3048C103.635 98.5128 103.605 98.7208 103.589 98.9288C103.572 99.1369 103.564 99.3284 103.564 99.5036V104.085ZM122.777 99.6185C122.361 99.7937 121.94 99.9087 121.513 99.9634C121.086 100.018 120.659 100.062 120.232 100.095C119.477 100.15 118.888 100.319 118.467 100.604C118.045 100.888 117.834 101.321 117.834 101.901C117.834 102.164 117.886 102.391 117.99 102.583C118.094 102.774 118.231 102.933 118.401 103.059C118.571 103.185 118.768 103.278 118.992 103.338C119.217 103.398 119.444 103.428 119.674 103.428C120.068 103.428 120.451 103.379 120.823 103.281C121.195 103.182 121.527 103.031 121.817 102.829C122.107 102.626 122.339 102.369 122.515 102.057C122.69 101.745 122.777 101.376 122.777 100.949V99.6185ZM121.119 99.1259C121.305 99.104 121.527 99.0712 121.784 99.0274C122.041 98.9836 122.252 98.9234 122.416 98.8467C122.58 98.7701 122.681 98.6415 122.72 98.4608C122.758 98.2802 122.777 98.1132 122.777 97.96C122.777 97.4564 122.616 97.0431 122.293 96.7202C121.97 96.3972 121.425 96.2357 120.659 96.2357C120.32 96.2357 120.008 96.2658 119.723 96.326C119.438 96.3862 119.189 96.4903 118.976 96.638C118.762 96.7858 118.587 96.9829 118.45 97.2292C118.313 97.4755 118.223 97.7848 118.179 98.157H117.178C117.21 97.6534 117.325 97.2237 117.522 96.8679C117.719 96.5121 117.974 96.222 118.286 95.9976C118.598 95.7732 118.959 95.609 119.37 95.505C119.78 95.401 120.216 95.349 120.675 95.349C121.102 95.349 121.505 95.3955 121.882 95.4885C122.26 95.5816 122.588 95.7294 122.868 95.9319C123.147 96.1345 123.366 96.4054 123.524 96.7448C123.683 97.0842 123.763 97.5002 123.763 97.9928V102.624C123.763 103.007 123.831 103.25 123.968 103.354C124.105 103.458 124.381 103.434 124.797 103.281V104.052C124.72 104.074 124.608 104.107 124.46 104.151C124.313 104.195 124.168 104.217 124.025 104.217C123.872 104.217 123.724 104.2 123.582 104.167C123.418 104.145 123.286 104.093 123.188 104.011C123.089 103.929 123.01 103.831 122.95 103.716C122.889 103.601 122.848 103.475 122.827 103.338C122.805 103.201 122.794 103.056 122.794 102.903C122.378 103.363 121.901 103.713 121.365 103.954C120.829 104.195 120.248 104.315 119.624 104.315C119.252 104.315 118.894 104.266 118.549 104.167C118.204 104.069 117.9 103.916 117.637 103.707C117.375 103.499 117.167 103.245 117.013 102.944C116.86 102.643 116.783 102.284 116.783 101.868C116.783 100.423 117.774 99.5693 119.756 99.3065L121.119 99.1259ZM128.147 104.085H127.162V95.5789H128.147V96.7612C128.541 96.3452 128.949 96.0058 129.371 95.7431C129.792 95.4803 130.298 95.349 130.889 95.349C131.415 95.349 131.902 95.4393 132.351 95.6199C132.8 95.8006 133.178 96.1153 133.484 96.5641C133.692 96.8707 133.815 97.1854 133.854 97.5084C133.892 97.8313 133.911 98.168 133.911 98.5183V104.085H132.926V98.5347C132.926 97.7684 132.756 97.1936 132.417 96.8105C132.077 96.4273 131.514 96.2357 130.725 96.2357C130.419 96.2357 130.14 96.2822 129.888 96.3753C129.636 96.4684 129.409 96.5915 129.206 96.7448C129.004 96.8981 128.831 97.0732 128.689 97.2703C128.547 97.4673 128.437 97.6753 128.361 97.8943C128.262 98.168 128.202 98.4307 128.18 98.6825C128.158 98.9343 128.147 99.208 128.147 99.5036V104.085ZM143.682 99.7992C143.682 99.3175 143.616 98.8604 143.485 98.428C143.353 97.9956 143.165 97.6179 142.918 97.2949C142.672 96.9719 142.371 96.7147 142.015 96.5231C141.659 96.3315 141.257 96.2357 140.808 96.2357C140.294 96.2357 139.85 96.337 139.478 96.5395C139.106 96.7421 138.799 97.0185 138.558 97.3688C138.317 97.7191 138.142 98.1269 138.033 98.5922C137.923 99.0575 137.88 99.5583 137.901 100.095C137.901 100.631 137.975 101.105 138.123 101.515C138.271 101.926 138.476 102.273 138.739 102.558C139.002 102.843 139.308 103.059 139.659 103.207C140.009 103.354 140.392 103.428 140.808 103.428C141.268 103.428 141.678 103.335 142.04 103.149C142.401 102.963 142.702 102.709 142.943 102.386C143.184 102.063 143.367 101.679 143.493 101.236C143.619 100.793 143.682 100.314 143.682 99.7992ZM143.682 92.2617H144.667V104.085H143.682V102.591H143.649C143.507 102.875 143.323 103.125 143.099 103.338C142.874 103.551 142.628 103.729 142.36 103.872C142.092 104.014 141.815 104.124 141.531 104.2C141.246 104.277 140.967 104.315 140.693 104.315C140.003 104.315 139.418 104.2 138.936 103.97C138.454 103.74 138.057 103.426 137.745 103.026C137.433 102.626 137.206 102.153 137.064 101.606C136.922 101.058 136.85 100.472 136.85 99.8484C136.85 99.2573 136.927 98.688 137.08 98.1406C137.234 97.5932 137.466 97.1143 137.778 96.7037C138.09 96.2932 138.484 95.9648 138.961 95.7184C139.437 95.4721 139.998 95.349 140.644 95.349C141.246 95.349 141.823 95.4831 142.376 95.7513C142.929 96.0195 143.364 96.4164 143.682 96.9418V92.2617ZM153.535 99.6185C153.119 99.7937 152.697 99.9087 152.27 99.9634C151.843 100.018 151.416 100.062 150.989 100.095C150.234 100.15 149.646 100.319 149.224 100.604C148.803 100.888 148.592 101.321 148.592 101.901C148.592 102.164 148.644 102.391 148.748 102.583C148.852 102.774 148.989 102.933 149.158 103.059C149.328 103.185 149.525 103.278 149.75 103.338C149.974 103.398 150.201 103.428 150.431 103.428C150.825 103.428 151.208 103.379 151.581 103.281C151.953 103.182 152.284 103.031 152.574 102.829C152.864 102.626 153.097 102.369 153.272 102.057C153.447 101.745 153.535 101.376 153.535 100.949V99.6185ZM151.876 99.1259C152.062 99.104 152.284 99.0712 152.541 99.0274C152.798 98.9836 153.009 98.9234 153.173 98.8467C153.338 98.7701 153.439 98.6415 153.477 98.4608C153.516 98.2802 153.535 98.1132 153.535 97.96C153.535 97.4564 153.373 97.0431 153.05 96.7202C152.727 96.3972 152.183 96.2357 151.416 96.2357C151.077 96.2357 150.765 96.2658 150.48 96.326C150.196 96.3862 149.947 96.4903 149.733 96.638C149.52 96.7858 149.345 96.9829 149.208 97.2292C149.071 97.4755 148.98 97.7848 148.937 98.157H147.935C147.968 97.6534 148.083 97.2237 148.28 96.8679C148.477 96.5121 148.731 96.222 149.043 95.9976C149.355 95.7732 149.717 95.609 150.127 95.505C150.538 95.401 150.973 95.349 151.433 95.349C151.86 95.349 152.262 95.3955 152.64 95.4885C153.017 95.5816 153.346 95.7294 153.625 95.9319C153.904 96.1345 154.123 96.4054 154.282 96.7448C154.441 97.0842 154.52 97.5002 154.52 97.9928V102.624C154.52 103.007 154.588 103.25 154.725 103.354C154.862 103.458 155.139 103.434 155.555 103.281V104.052C155.478 104.074 155.366 104.107 155.218 104.151C155.07 104.195 154.925 104.217 154.783 104.217C154.629 104.217 154.482 104.2 154.339 104.167C154.175 104.145 154.044 104.093 153.945 104.011C153.847 103.929 153.767 103.831 153.707 103.716C153.647 103.601 153.606 103.475 153.584 103.338C153.562 103.201 153.551 103.056 153.551 102.903C153.135 103.363 152.659 103.713 152.122 103.954C151.586 104.195 151.006 104.315 150.382 104.315C150.01 104.315 149.651 104.266 149.306 104.167C148.961 104.069 148.658 103.916 148.395 103.707C148.132 103.499 147.924 103.245 147.771 102.944C147.618 102.643 147.541 102.284 147.541 101.868C147.541 100.423 148.532 99.5693 150.513 99.3065L151.876 99.1259ZM164.57 103.133H167.411C168.024 103.133 168.558 103.105 169.012 103.051C169.466 102.996 169.841 102.884 170.137 102.714C170.432 102.544 170.654 102.303 170.802 101.991C170.95 101.679 171.024 101.266 171.024 100.752C171.024 100.259 170.941 99.8621 170.777 99.5611C170.613 99.26 170.378 99.0274 170.071 98.8632C169.765 98.6989 169.398 98.5867 168.971 98.5265C168.544 98.4663 168.068 98.4362 167.542 98.4362H164.57V103.133ZM164.57 97.4838H167.394C167.975 97.4838 168.462 97.4345 168.856 97.336C169.25 97.2374 169.568 97.0924 169.808 96.9008C170.049 96.7092 170.222 96.4738 170.326 96.1947C170.43 95.9155 170.482 95.5953 170.482 95.234C170.482 94.8618 170.421 94.547 170.301 94.2898C170.181 94.0325 169.989 93.8245 169.726 93.6658C169.464 93.507 169.121 93.3921 168.7 93.3209C168.278 93.2497 167.761 93.2142 167.148 93.2142H164.57V97.4838ZM163.453 104.085V92.2617H167.723C168.413 92.2617 169.004 92.3329 169.496 92.4752C169.989 92.6175 170.391 92.82 170.703 93.0828C171.015 93.3455 171.243 93.6603 171.385 94.027C171.527 94.3938 171.598 94.7961 171.598 95.234C171.598 95.65 171.544 96.0086 171.434 96.3096C171.325 96.6107 171.182 96.8625 171.007 97.065C170.832 97.2675 170.632 97.4263 170.408 97.5412C170.183 97.6562 169.951 97.7355 169.71 97.7793V97.8122C170.531 97.9326 171.141 98.2556 171.541 98.7811C171.94 99.3065 172.14 99.9634 172.14 100.752C172.14 101.365 172.044 101.885 171.853 102.312C171.661 102.739 171.396 103.083 171.056 103.346C170.717 103.609 170.309 103.798 169.833 103.913C169.357 104.028 168.84 104.085 168.281 104.085H163.453ZM176.114 104.085H175.129V95.5789H176.114V97.1717H176.147C176.421 96.493 176.774 96.0195 177.206 95.7513C177.639 95.4831 178.211 95.349 178.922 95.349V96.4164C178.364 96.4054 177.904 96.493 177.543 96.6791C177.182 96.8652 176.894 97.117 176.681 97.4345C176.467 97.752 176.32 98.1269 176.237 98.5594C176.155 98.9918 176.114 99.4434 176.114 99.9141V104.085ZM186.936 99.6185C186.52 99.7937 186.099 99.9087 185.672 99.9634C185.245 100.018 184.818 100.062 184.391 100.095C183.635 100.15 183.047 100.319 182.625 100.604C182.204 100.888 181.993 101.321 181.993 101.901C181.993 102.164 182.045 102.391 182.149 102.583C182.253 102.774 182.39 102.933 182.56 103.059C182.729 103.185 182.926 103.278 183.151 103.338C183.375 103.398 183.602 103.428 183.832 103.428C184.226 103.428 184.61 103.379 184.982 103.281C185.354 103.182 185.685 103.031 185.975 102.829C186.265 102.626 186.498 102.369 186.673 102.057C186.848 101.745 186.936 101.376 186.936 100.949V99.6185ZM185.277 99.1259C185.464 99.104 185.685 99.0712 185.943 99.0274C186.2 98.9836 186.411 98.9234 186.575 98.8467C186.739 98.7701 186.84 98.6415 186.879 98.4608C186.917 98.2802 186.936 98.1132 186.936 97.96C186.936 97.4564 186.775 97.0431 186.452 96.7202C186.129 96.3972 185.584 96.2357 184.818 96.2357C184.478 96.2357 184.166 96.2658 183.882 96.326C183.597 96.3862 183.348 96.4903 183.134 96.638C182.921 96.7858 182.746 96.9829 182.609 97.2292C182.472 97.4755 182.382 97.7848 182.338 98.157H181.336C181.369 97.6534 181.484 97.2237 181.681 96.8679C181.878 96.5121 182.133 96.222 182.445 95.9976C182.757 95.7732 183.118 95.609 183.529 95.505C183.939 95.401 184.374 95.349 184.834 95.349C185.261 95.349 185.663 95.3955 186.041 95.4885C186.419 95.5816 186.747 95.7294 187.026 95.9319C187.306 96.1345 187.524 96.4054 187.683 96.7448C187.842 97.0842 187.921 97.5002 187.921 97.9928V102.624C187.921 103.007 187.99 103.25 188.127 103.354C188.263 103.458 188.54 103.434 188.956 103.281V104.052C188.879 104.074 188.767 104.107 188.619 104.151C188.471 104.195 188.326 104.217 188.184 104.217C188.031 104.217 187.883 104.2 187.741 104.167C187.576 104.145 187.445 104.093 187.347 104.011C187.248 103.929 187.169 103.831 187.108 103.716C187.048 103.601 187.007 103.475 186.985 103.338C186.963 103.201 186.952 103.056 186.952 102.903C186.536 103.363 186.06 103.713 185.524 103.954C184.987 104.195 184.407 104.315 183.783 104.315C183.411 104.315 183.052 104.266 182.707 104.167C182.363 104.069 182.059 103.916 181.796 103.707C181.533 103.499 181.325 103.245 181.172 102.944C181.019 102.643 180.942 102.284 180.942 101.868C180.942 100.423 181.933 99.5693 183.914 99.3065L185.277 99.1259ZM197.889 99.8649C197.889 99.3503 197.826 98.8714 197.7 98.428C197.574 97.9846 197.391 97.6014 197.15 97.2785C196.909 96.9555 196.608 96.701 196.247 96.5149C195.886 96.3288 195.475 96.2357 195.015 96.2357C194.599 96.2357 194.216 96.3096 193.866 96.4574C193.516 96.6052 193.209 96.8214 192.946 97.1061C192.684 97.3907 192.478 97.7383 192.33 98.1488C192.183 98.5594 192.109 99.0328 192.109 99.5693C192.087 100.106 192.131 100.607 192.24 101.072C192.35 101.537 192.525 101.945 192.766 102.295C193.007 102.646 193.313 102.922 193.685 103.125C194.057 103.327 194.501 103.428 195.015 103.428C195.464 103.428 195.867 103.333 196.222 103.141C196.578 102.949 196.879 102.692 197.126 102.369C197.372 102.046 197.561 101.668 197.692 101.236C197.823 100.804 197.889 100.347 197.889 99.8649ZM197.889 95.5789H198.874V103.264C198.874 103.833 198.817 104.378 198.702 104.898C198.587 105.418 198.382 105.875 198.086 106.269C197.791 106.663 197.386 106.978 196.871 107.213C196.356 107.449 195.694 107.567 194.884 107.567C194.26 107.567 193.724 107.487 193.275 107.328C192.826 107.17 192.459 106.97 192.174 106.729C191.89 106.488 191.674 106.223 191.526 105.933C191.378 105.642 191.299 105.372 191.288 105.12H192.339C192.415 105.437 192.536 105.697 192.7 105.9C192.864 106.102 193.058 106.261 193.283 106.376C193.507 106.491 193.756 106.57 194.03 106.614C194.304 106.658 194.588 106.68 194.884 106.68C195.552 106.68 196.088 106.565 196.493 106.335C196.898 106.105 197.205 105.804 197.413 105.432C197.621 105.06 197.755 104.638 197.815 104.167C197.875 103.697 197.9 103.215 197.889 102.722C197.572 103.248 197.137 103.645 196.584 103.913C196.031 104.181 195.453 104.315 194.851 104.315C194.205 104.315 193.644 104.192 193.168 103.946C192.692 103.699 192.298 103.371 191.986 102.96C191.674 102.55 191.441 102.071 191.288 101.523C191.134 100.976 191.058 100.407 191.058 99.8156C191.058 99.1916 191.129 98.6059 191.271 98.0585C191.414 97.5111 191.641 97.0376 191.953 96.638C192.265 96.2385 192.662 95.9237 193.143 95.6938C193.625 95.4639 194.211 95.349 194.9 95.349C195.174 95.349 195.453 95.3873 195.738 95.4639C196.023 95.5405 196.299 95.65 196.567 95.7923C196.835 95.9347 197.082 96.1153 197.306 96.3342C197.531 96.5532 197.714 96.7995 197.856 97.0732H197.889V95.5789ZM207.742 99.6185C207.326 99.7937 206.905 99.9087 206.478 99.9634C206.051 100.018 205.624 100.062 205.197 100.095C204.441 100.15 203.853 100.319 203.431 100.604C203.01 100.888 202.799 101.321 202.799 101.901C202.799 102.164 202.851 102.391 202.955 102.583C203.059 102.774 203.196 102.933 203.366 103.059C203.535 103.185 203.732 103.278 203.957 103.338C204.181 103.398 204.408 103.428 204.638 103.428C205.032 103.428 205.416 103.379 205.788 103.281C206.16 103.182 206.491 103.031 206.781 102.829C207.071 102.626 207.304 102.369 207.479 102.057C207.654 101.745 207.742 101.376 207.742 100.949V99.6185ZM206.083 99.1259C206.27 99.104 206.491 99.0712 206.749 99.0274C207.006 98.9836 207.217 98.9234 207.381 98.8467C207.545 98.7701 207.646 98.6415 207.685 98.4608C207.723 98.2802 207.742 98.1132 207.742 97.96C207.742 97.4564 207.581 97.0431 207.258 96.7202C206.935 96.3972 206.39 96.2357 205.624 96.2357C205.284 96.2357 204.972 96.2658 204.688 96.326C204.403 96.3862 204.154 96.4903 203.94 96.638C203.727 96.7858 203.552 96.9829 203.415 97.2292C203.278 97.4755 203.188 97.7848 203.144 98.157H202.142C202.175 97.6534 202.29 97.2237 202.487 96.8679C202.684 96.5121 202.939 96.222 203.251 95.9976C203.563 95.7732 203.924 95.609 204.335 95.505C204.745 95.401 205.18 95.349 205.64 95.349C206.067 95.349 206.469 95.3955 206.847 95.4885C207.225 95.5816 207.553 95.7294 207.832 95.9319C208.112 96.1345 208.33 96.4054 208.489 96.7448C208.648 97.0842 208.727 97.5002 208.727 97.9928V102.624C208.727 103.007 208.796 103.25 208.933 103.354C209.069 103.458 209.346 103.434 209.762 103.281V104.052C209.685 104.074 209.573 104.107 209.425 104.151C209.277 104.195 209.132 104.217 208.99 104.217C208.837 104.217 208.689 104.2 208.547 104.167C208.382 104.145 208.251 104.093 208.153 104.011C208.054 103.929 207.975 103.831 207.914 103.716C207.854 103.601 207.813 103.475 207.791 103.338C207.769 103.201 207.758 103.056 207.758 102.903C207.342 103.363 206.866 103.713 206.33 103.954C205.793 104.195 205.213 104.315 204.589 104.315C204.217 104.315 203.858 104.266 203.514 104.167C203.169 104.069 202.865 103.916 202.602 103.707C202.339 103.499 202.131 103.245 201.978 102.944C201.825 102.643 201.748 102.284 201.748 101.868C201.748 100.423 202.739 99.5693 204.72 99.3065L206.083 99.1259Z" fill="white"/>
<path fill-rule="evenodd" clip-rule="evenodd" d="M168.822 75.843H152.401V64.5633C150.243 71.1142 144.074 75.843 136.8 75.843C127.731 75.843 120.379 68.4908 120.379 59.4215C120.379 50.3521 127.731 43 136.8 43H158.969V61.0564C160.58 57.2029 164.385 54.495 168.822 54.495C174.717 54.495 179.496 59.2739 179.496 65.169C179.496 71.0641 174.717 75.843 168.822 75.843Z" fill="white"/>
</g>
<defs>
<clipPath id="clip0_801_334">
<rect width="120" height="64.8649" fill="white" transform="translate(90 43)"/>
</clipPath>
</defs>
</svg>
