<svg width="300" height="150" viewBox="0 0 300 150" fill="none" xmlns="http://www.w3.org/2000/svg">
<path d="M99.4599 83.8886H98.3196C93.7586 83.8886 90 80.093 90 75.4444C90 70.7959 93.7586 67.043 98.3196 67.043C102.881 67.043 106.681 70.8386 106.681 75.4871V83.5474H103.345V75.4444C103.345 72.6724 101.107 70.4121 98.3196 70.4121C95.5746 70.4121 93.3363 72.6724 93.3363 75.4444C93.3363 78.2165 95.5746 80.4768 98.3196 80.4768H99.4599V83.8886Z" fill="white"/>
<path d="M114.199 83.5044H110.862V75.4441C110.862 70.7956 114.621 67 119.224 67H120.407V70.4118H119.224C116.479 70.4118 114.241 72.6721 114.241 75.4441V83.5044H114.199Z" fill="white"/>
<path d="M130.542 83.9311C130.12 83.9311 129.698 83.8885 129.233 83.8458C124.672 83.1208 121.547 78.8135 122.265 74.2503C122.983 69.6444 127.248 66.4885 131.809 67.1709C134.005 67.512 135.948 68.7062 137.257 70.54L134.554 72.5444C133.752 71.4356 132.612 70.7532 131.303 70.54C128.6 70.1135 126.024 71.99 125.601 74.762C125.179 77.4914 127.037 80.0929 129.782 80.5194C131.64 80.8179 133.499 80.0076 134.597 78.4723L137.299 80.4341C135.695 82.6517 133.203 83.9311 130.542 83.9311Z" fill="white"/>
<path d="M148.618 83.8885C144.014 83.8885 140.256 80.0929 140.256 75.487V67.4268H143.592V75.4444C143.592 78.2165 145.83 80.4768 148.575 80.4768C151.32 80.4768 153.559 78.2165 153.559 75.4444V67.4268H156.895V75.4444C156.937 80.0929 153.221 83.8885 148.618 83.8885Z" fill="white"/>
<path d="M171.76 83.8885H170.367C165.763 83.8885 162.005 80.0929 162.005 75.487V67.4268H165.341V75.4444C165.341 78.2165 167.579 80.4768 170.324 80.4768H171.718V83.8885H171.76Z" fill="white"/>
<path d="M182.445 83.9312C177.842 83.9312 174.083 80.1356 174.083 75.5297V67.4268H177.42V75.487C177.42 78.2591 179.658 80.5194 182.403 80.5194C185.148 80.5194 187.386 78.2591 187.386 75.487V67.4268H190.723V75.487C190.765 80.1356 187.006 83.9312 182.445 83.9312Z" fill="white"/>
<path d="M202.463 83.8885C201.365 83.8885 200.309 83.6752 199.295 83.2488L200.562 80.1355C201.154 80.3914 201.829 80.5193 202.463 80.5193C205.25 80.5193 207.488 78.2591 207.488 75.4443H210.825C210.825 80.1355 207.066 83.8885 202.463 83.8885Z" fill="white"/>
<path d="M197.438 75.4441H194.101C194.101 70.7956 197.86 67 202.463 67C203.73 67 204.955 67.2985 206.095 67.8529L204.659 70.8809C203.984 70.5397 203.266 70.3691 202.463 70.3691C199.676 70.3691 197.438 72.6721 197.438 75.4441Z" fill="white"/>
</svg>
