<svg width="300" height="150" viewBox="0 0 300 150" fill="none" xmlns="http://www.w3.org/2000/svg">
<g clip-path="url(#clip0_801_335)">
<path d="M197.173 85.4864L196.769 84.7344H196.498V85.4864H196.073V83.456H196.787C197.024 83.456 197.211 83.504 197.35 83.6C197.489 83.6968 197.558 83.856 197.558 84.0776C197.563 84.2067 197.528 84.3342 197.459 84.4432C197.391 84.5428 197.295 84.6193 197.182 84.6624L197.652 85.4864H197.173ZM196.498 84.3952H196.75C196.878 84.3952 196.976 84.368 197.042 84.3152C197.109 84.2624 197.142 84.1832 197.142 84.0776C197.142 83.976 197.11 83.904 197.046 83.86C196.982 83.8168 196.883 83.7952 196.75 83.7952H196.498V84.3952ZM196.85 86.5024C196.331 86.5024 195.833 86.2961 195.466 85.9288C195.098 85.5615 194.892 85.0634 194.892 84.544C194.892 84.0246 195.098 83.5265 195.466 83.1592C195.833 82.7919 196.331 82.5856 196.85 82.5856C197.37 82.5856 197.868 82.7919 198.235 83.1592C198.602 83.5265 198.809 84.0246 198.809 84.544C198.809 85.0634 198.602 85.5615 198.235 85.9288C197.868 86.2961 197.37 86.5024 196.85 86.5024ZM196.85 86.192C197.287 86.192 197.707 86.0184 198.016 85.7093C198.325 85.4003 198.498 84.9811 198.498 84.544C198.498 84.1069 198.325 83.6877 198.016 83.3787C197.707 83.0696 197.287 82.896 196.85 82.896C196.413 82.896 195.994 83.0696 195.685 83.3787C195.376 83.6877 195.202 84.1069 195.202 84.544C195.202 84.9811 195.376 85.4003 195.685 85.7093C195.994 86.0184 196.413 86.192 196.85 86.192ZM112.938 77.0528V79.0208H113.707C114.171 79.0208 114.404 78.7168 114.416 78.1216V77.8904C114.416 77.356 114.11 77.0528 113.707 77.0528H112.938ZM112.938 70.4816V72.0736H113.658C114.074 72.0736 114.282 71.8304 114.294 71.356V71.2352C114.282 70.7368 114.062 70.4816 113.634 70.4816H112.938ZM120.222 74.3928C123.558 74.8664 125.33 76.664 125.33 79.664V80.1136C125.33 82.1056 124.646 83.672 123.289 84.8016C121.933 85.9312 119.941 86.5016 117.313 86.5016H102V63H117.546C119.868 63 121.677 63.4616 122.985 64.3968C124.28 65.332 124.928 66.7776 124.928 68.7208V68.988C124.928 72.1096 123.4 73.664 120.222 74.1376V74.3928H120.222ZM149.198 63V77.7448C149.198 80.8784 148.197 83.1984 146.193 84.7168C144.188 86.2344 141.341 87 137.662 87C133.763 87 130.891 86.2592 129.07 84.7648C127.238 83.2832 126.32 80.9392 126.32 77.7448V63H137.186V78.316C137.186 78.8864 137.357 79.1664 137.711 79.1664C138.078 79.1664 138.261 78.8864 138.261 78.316V63H149.199H149.198ZM163.773 78.644H170.813V86.5016H150.536V79.336L157.296 70.8584H150.758V63H170.63L170.581 69.8624L163.773 78.644ZM185.36 78.644H192.4V86.5016H172.125V79.336L178.883 70.8584H172.344V63H192.216L192.167 69.8624L185.359 78.644H185.36Z" fill="white"/>
</g>
<defs>
<clipPath id="clip0_801_335">
<rect width="96.8" height="24" fill="white" transform="translate(102 63)"/>
</clipPath>
</defs>
</svg>
