<svg width="300" height="150" viewBox="0 0 300 150" fill="none" xmlns="http://www.w3.org/2000/svg">
<path fill-rule="evenodd" clip-rule="evenodd" d="M139.58 66.1094C144.658 66.1094 148.304 69.8946 148.304 74.5754V74.622C148.304 79.298 144.612 83.133 139.534 83.133C134.454 83.133 130.811 79.3446 130.811 74.667V74.622C130.811 69.9428 134.502 66.1094 139.58 66.1094ZM144.515 74.622C144.515 71.7984 142.449 69.4475 139.534 69.4475C136.619 69.4475 134.596 71.7534 134.596 74.5754V74.622C134.596 77.4424 136.665 79.7949 139.58 79.7949C142.494 79.7949 144.515 77.489 144.515 74.667V74.622ZM115.837 69.7305H120.848V82.85H124.467V69.7305H129.474V66.3924H115.837V69.7305ZM108.035 66.3924H101.312V82.8484H104.932V80.3914H104.93V73.6733H104.932V69.6598H107.73C109.54 69.6598 110.671 70.5281 110.671 72.1538V72.1988C110.671 73.609 109.611 74.6928 107.8 74.6928H106.985V77.9135H107.683C111.373 77.9135 114.337 75.9357 114.337 72.128V72.083C114.337 68.7191 111.962 66.3924 108.035 66.3924ZM90.9472 72.9996L87.0205 66.3924H82.7883L89.1125 76.3618V82.85H92.7336V76.2911L99.0578 66.3924H94.943L90.9472 72.9996ZM81.8042 71.8708C81.8042 74.5271 80.3715 76.1962 78.2779 76.9729L82.2995 82.85H78.0673L74.541 77.5839H71.6964V82.85H68.0753V66.3908H75.5974C77.691 66.3908 79.3134 66.9809 80.394 68.0615C81.3122 68.978 81.8042 70.2708 81.8042 71.8225V71.8708ZM78.138 72.0107C78.138 70.459 77.0574 69.6598 75.2935 69.6598H71.6964V74.3856H75.3626C77.1266 74.3856 78.138 73.445 78.138 72.0589V72.0107ZM58.5561 79.7933C60.439 79.7933 61.5903 79.0407 62.8831 77.8669L65.1857 80.192C63.4958 82.0042 61.6144 83.1314 58.4403 83.1314C53.5954 83.1314 50 79.3945 50 74.667V74.6204C50 69.9412 53.5247 66.1094 58.5786 66.1094C61.6852 66.1094 63.5408 67.1449 65.07 68.6484L62.7657 71.3064C61.4954 70.155 60.2042 69.4491 58.5561 69.4491C55.7839 69.4491 53.7852 71.7518 53.7852 74.5754V74.6204C53.7852 77.4408 55.7341 79.7933 58.5561 79.7933Z" fill="white"/>
<path fill-rule="evenodd" clip-rule="evenodd" d="M139.488 73.2451C138.681 73.2451 138.028 73.8996 138.028 74.7052C138.028 75.5124 138.681 76.1668 139.488 76.1668C140.295 76.1668 140.948 75.5124 140.948 74.7052C140.948 73.8996 140.295 73.2451 139.488 73.2451Z" fill="white"/>
<path fill-rule="evenodd" clip-rule="evenodd" d="M181.933 76.168C181.125 76.168 180.473 76.8208 180.473 77.6264C180.473 78.4336 181.125 79.0881 181.933 79.0881C182.74 79.0881 183.391 78.4336 183.391 77.6264C183.391 76.8208 182.74 76.168 181.933 76.168Z" fill="white"/>
<path fill-rule="evenodd" clip-rule="evenodd" d="M56.958 74.7065C56.958 75.5137 57.6125 76.1665 58.4181 76.1665C59.2253 76.1665 59.8797 75.5137 59.8797 74.7065C59.8797 73.8993 59.2253 73.248 58.4181 73.248C57.6125 73.248 56.958 73.8993 56.958 74.7065Z" fill="white"/>
<path fill-rule="evenodd" clip-rule="evenodd" d="M243.041 82.575H244.264V67.2478H250V66.119H237.305V67.2478H243.041V82.575ZM222.73 82.575H234.559V81.4478H223.954V74.8391H233.381V73.7103H223.954V67.2478H234.438V66.119H222.73V82.575ZM208.181 82.575H219.067V81.4478H209.403V66.119H208.181V82.575ZM193.632 82.575H204.518V81.4478H194.854V66.119H193.632V82.575ZM186.724 77.9666L188.816 82.575H190.156L182.492 66H181.317L173.653 82.575H174.922L177.012 77.9666L177.532 76.8619L181.881 67.3394L186.207 76.8619L186.724 77.9666ZM150.008 66.119H151.37L156.541 80.7645L161.362 66.0691H162.302L167.122 80.7645L172.293 66.119H173.563L167.591 82.6924H166.604L161.785 68.3991L156.966 82.6924H155.978L150.008 66.119Z" fill="white"/>
</svg>
