<svg width="300" height="150" viewBox="0 0 300 150" fill="none" xmlns="http://www.w3.org/2000/svg">
<path d="M152.586 65.8874L164.082 62.0899L159.903 67.1024L164.429 65.5478L146.007 84.4707L151.252 71.2997L148.266 72.435L152.586 65.8874Z" fill="white"/>
<path d="M161.299 72.1822L151.876 81.8133H160.637V89.2101C158.628 90.0575 157.313 90.3655 155.226 90.3655C151.839 90.3655 148.776 89.2971 146.384 87.4388L140.773 93.0159L143.889 85.0097C142.007 82.4293 140.768 78.7692 140.768 75.0328C140.768 66.8653 146.335 60.8551 153.989 60.8551C155.895 60.8551 157.638 61.1258 159.339 61.7657L170.195 58.2466L166.372 63.0199L172.19 60.9394L168.403 64.8081L167.93 65.2957H173.106V48H164.924V50.555C161.652 49.3029 158.057 48.6816 154.066 48.6816C137.752 48.6816 126 60.0078 126 75.8801C126 91.2902 137.289 102 153.525 102C161.18 102 168.06 99.9191 174.014 95.8365L174.011 72.1822H161.299Z" fill="white"/>
</svg>
