<svg width="300" height="150" viewBox="0 0 300 150" fill="none" xmlns="http://www.w3.org/2000/svg">
<path d="M111.136 68.4635C110.739 66.7443 109.776 65.5353 108.208 64.8741C107.301 64.4962 106.319 64.3073 105.317 64.3262C103.39 64.2884 101.558 65.1385 100.349 66.631C99.0264 68.1612 98.4219 70.4282 98.4219 73.5076C98.4219 76.5869 99.1209 78.7783 100.538 80.0441C101.822 81.2909 103.542 81.971 105.317 81.971C107.074 81.971 108.529 81.461 109.625 80.4786C110.777 79.4395 111.514 78.0227 111.703 76.4924H105.884V72.2607H116.35V85.7116H112.874L112.364 82.5756C111.344 83.7469 110.456 84.5781 109.625 85.0882C108.246 85.9383 106.545 86.3728 104.505 86.3728C101.18 86.3728 98.4786 85.2393 96.3249 82.9345C94.0957 80.6297 93 77.4559 93 73.432C93 69.3703 94.1335 66.1209 96.3627 63.6839C98.5919 61.228 101.558 60 105.242 60C108.416 60 110.985 60.8123 112.931 62.4181C114.801 63.9106 115.991 66.102 116.256 68.4824H111.136V68.4635ZM135.563 83.4446C133.995 85.3715 131.634 86.3161 128.441 86.3161C125.248 86.3161 122.887 85.3715 121.319 83.4257C119.751 81.4799 118.976 79.1562 118.976 76.4547C118.976 73.7909 119.751 71.4484 121.319 69.5214C122.887 67.5567 125.267 66.5932 128.441 66.5932C131.615 66.5932 133.995 67.5756 135.563 69.5214C137.131 71.4861 137.906 73.7909 137.906 76.4547C137.906 79.1562 137.112 81.4987 135.563 83.4446ZM131.671 80.762C132.446 79.7418 132.805 78.306 132.805 76.4547C132.805 74.5844 132.446 73.1675 131.671 72.1851C130.897 71.1839 129.801 70.6927 128.422 70.6927C127.005 70.6927 125.909 71.2028 125.135 72.1851C124.379 73.1675 124.001 74.6411 124.001 76.4547C124.001 78.3249 124.36 79.7418 125.135 80.762C125.909 81.7821 127.005 82.2544 128.422 82.2544C129.839 82.2544 130.935 81.7632 131.671 80.762ZM156.249 83.4446C154.681 85.3904 152.301 86.335 149.127 86.335C145.953 86.335 143.573 85.3904 142.005 83.4446C140.437 81.4987 139.662 79.1751 139.662 76.4736C139.662 73.8098 140.437 71.4673 142.005 69.5403C143.573 67.5756 145.953 66.6121 149.127 66.6121C152.301 66.6121 154.681 67.5945 156.249 69.5403C157.817 71.505 158.592 73.8098 158.592 76.4736C158.592 79.1562 157.817 81.4987 156.249 83.4446ZM152.377 80.762C153.151 79.7418 153.51 78.306 153.51 76.4547C153.51 74.5844 153.151 73.1675 152.377 72.1851C151.602 71.1839 150.506 70.6927 149.127 70.6927C147.71 70.6927 146.615 71.2028 145.84 72.1851C145.084 73.1675 144.707 74.6411 144.707 76.4547C144.707 78.3249 145.065 79.7418 145.84 80.762C146.615 81.7821 147.71 82.2544 149.127 82.2544C150.525 82.2733 151.621 81.7632 152.377 80.762ZM171.344 67.4811C172.213 67.9723 172.931 68.6713 173.46 69.5214V60.6801H178.39V85.7116H173.668V83.1423C173.082 84.1247 172.27 84.9559 171.287 85.5605C170.399 86.0705 169.322 86.2972 168 86.2972C165.846 86.2972 164.014 85.4282 162.521 83.6713C161.029 81.9144 160.292 79.6851 160.292 76.9081C160.292 73.7343 161.029 71.2406 162.484 69.4458C163.938 67.6134 165.884 66.7065 168.34 66.7065C169.417 66.6877 170.437 66.9521 171.344 67.4811ZM172.515 80.6675C173.252 79.6474 173.573 78.3249 173.573 76.7191C173.573 74.4521 172.987 72.8463 171.854 71.864C171.174 71.2783 170.305 70.9761 169.398 70.9761C167.981 70.9761 166.942 71.5239 166.3 72.5819C165.639 73.6398 165.317 75 165.317 76.568C165.317 78.2872 165.639 79.6474 166.338 80.6675C166.999 81.6877 168.019 82.1977 169.398 82.1977C170.758 82.1977 171.816 81.6877 172.515 80.6675ZM184.606 74.5277V85.9383L182.225 85.9005V60.8123H192.049C194.826 60.8123 196.942 61.3224 198.416 62.3426C199.87 63.3627 200.607 65.0441 200.607 67.3867C200.607 68.9547 200.286 70.2393 199.662 71.1461C199.039 72.0529 197.962 72.8463 196.545 73.5264C197.225 73.7343 197.83 74.131 198.302 74.6599C198.718 75.1511 199.039 75.7368 199.247 76.3413C199.474 76.9647 204.877 87.9597 205.028 88.3186C205.217 88.7154 205.462 89.0743 205.764 89.3766C205.935 89.5277 206.142 89.6411 206.35 89.7355V89.9622L203.724 90C203.214 89.5088 202.836 88.9043 202.591 88.2431C202.288 87.4307 196.715 76.3602 196.413 75.9635C196.111 75.5668 195.733 75.2645 195.28 75.0567C194.807 74.83 194.297 74.6788 193.787 74.6599C193.239 74.5844 192.673 74.5466 192.106 74.5466H184.606V74.5277ZM191.992 72.4685C192.824 72.4685 193.636 72.3741 194.448 72.1662C195.166 72.0151 195.827 71.7128 196.413 71.2972C196.961 70.9005 197.414 70.3715 197.736 69.767C198.076 69.068 198.227 68.2935 198.208 67.5C198.227 66.7065 198.057 65.9131 197.698 65.1952C197.395 64.6096 196.923 64.1184 196.338 63.7783C195.752 63.4194 195.091 63.1738 194.411 63.0416C193.655 62.8904 192.899 62.8149 192.144 62.8149H184.625V72.4685H191.992Z" fill="white"/>
<path d="M206.275 75.0375C205.84 75.2642 205.443 75.5665 205.141 75.9443C204.82 76.341 197.641 87.4494 197.207 88.2239C196.848 88.8851 196.47 89.5841 196.073 89.9808L193.447 89.9431V89.7164C193.655 89.6219 193.844 89.4897 194.033 89.3574C194.316 89.0363 194.562 88.6773 194.77 88.2995C194.921 87.9405 201.929 76.87 202.288 76.3221C202.761 75.6232 202.761 75.6232 203.157 75.1131C203.554 74.6408 205.5 74.7164 206.275 74.7164V75.0375Z" fill="white"/>
</svg>
