<svg width="300" height="150" viewBox="0 0 300 150" fill="none" xmlns="http://www.w3.org/2000/svg">
<g clip-path="url(#clip0_801_336)">
<path d="M100.891 35.9865C101.164 35.9865 101.385 35.7656 101.385 35.4932C101.385 35.2208 101.164 35 100.891 35C100.619 35 100.398 35.2208 100.398 35.4932C100.398 35.7656 100.619 35.9865 100.891 35.9865Z" fill="#F1F1F1"/>
<path d="M61.4934 75.3703C61.7659 75.3703 61.9869 75.1496 61.9869 74.8772C61.9869 74.6049 61.7659 74.3838 61.4934 74.3838C61.2209 74.3838 61 74.6049 61 74.8772C61 75.1496 61.2209 75.3703 61.4934 75.3703Z" fill="#F1F1F1"/>
<path d="M140.289 75.3703C140.561 75.3703 140.782 75.1492 140.782 74.8769C140.782 74.6045 140.561 74.3838 140.289 74.3838C140.016 74.3838 139.796 74.6045 139.796 74.8769C139.796 75.1492 140.016 75.3703 140.289 75.3703Z" fill="#F1F1F1"/>
<path d="M100.891 114.75C101.164 114.75 101.385 114.529 101.385 114.257C101.385 113.984 101.164 113.764 100.891 113.764C100.619 113.764 100.398 113.984 100.398 114.257C100.398 114.529 100.619 114.75 100.891 114.75Z" fill="#F1F1F1"/>
<path d="M100.893 46.8129C101.711 46.8129 102.374 46.1504 102.374 45.3332C102.374 44.516 101.711 43.8535 100.893 43.8535C100.076 43.8535 99.4131 44.516 99.4131 45.3332C99.4131 46.1504 100.076 46.8129 100.893 46.8129Z" fill="#F1F1F1"/>
<path d="M110.741 46.8129C111.558 46.8129 112.221 46.1504 112.221 45.3332C112.221 44.516 111.558 43.8535 110.741 43.8535C109.923 43.8535 109.26 44.516 109.26 45.3332C109.26 46.1504 109.923 46.8129 110.741 46.8129Z" fill="#F1F1F1"/>
<path d="M91.0464 46.8129C91.8639 46.8129 92.5267 46.1504 92.5267 45.3332C92.5267 44.516 91.8639 43.8535 91.0464 43.8535C90.2288 43.8535 89.5661 44.516 89.5661 45.3332C89.5661 46.1504 90.2288 46.8129 91.0464 46.8129Z" fill="#F1F1F1"/>
<path d="M130.444 66.5062C131.261 66.5062 131.924 65.8437 131.924 65.0265C131.924 64.2093 131.261 63.5469 130.444 63.5469C129.627 63.5469 128.964 64.2093 128.964 65.0265C128.964 65.8437 129.627 66.5062 130.444 66.5062Z" fill="#F1F1F1"/>
<path d="M130.444 76.3499C131.261 76.3499 131.924 75.6874 131.924 74.8703C131.924 74.0528 131.261 73.3906 130.444 73.3906C129.627 73.3906 128.964 74.0528 128.964 74.8703C128.964 75.6874 129.627 76.3499 130.444 76.3499Z" fill="#F1F1F1"/>
<path d="M71.3429 76.3499C72.1605 76.3499 72.8232 75.6874 72.8232 74.8703C72.8232 74.0528 72.1605 73.3906 71.3429 73.3906C70.5254 73.3906 69.8626 74.0528 69.8626 74.8703C69.8626 75.6874 70.5254 76.3499 71.3429 76.3499Z" fill="#F1F1F1"/>
<path d="M71.3429 66.5062C72.1605 66.5062 72.8232 65.8437 72.8232 65.0265C72.8232 64.2093 72.1605 63.5469 71.3429 63.5469C70.5254 63.5469 69.8626 64.2093 69.8626 65.0265C69.8626 65.8437 70.5254 66.5062 71.3429 66.5062Z" fill="#F1F1F1"/>
<path d="M100.893 105.891C101.711 105.891 102.374 105.228 102.374 104.411C102.374 103.594 101.711 102.932 100.893 102.932C100.076 102.932 99.4131 103.594 99.4131 104.411C99.4131 105.228 100.076 105.891 100.893 105.891Z" fill="#F1F1F1"/>
<path d="M91.0464 105.891C91.8639 105.891 92.5267 105.228 92.5267 104.411C92.5267 103.594 91.8639 102.932 91.0464 102.932C90.2288 102.932 89.5661 103.594 89.5661 104.411C89.5661 105.228 90.2288 105.891 91.0464 105.891Z" fill="#F1F1F1"/>
<path d="M110.741 105.891C111.558 105.891 112.221 105.228 112.221 104.411C112.221 103.594 111.558 102.932 110.741 102.932C109.923 102.932 109.26 103.594 109.26 104.411C109.26 105.228 109.923 105.891 110.741 105.891Z" fill="#F1F1F1"/>
<path d="M71.3429 86.1976C72.1605 86.1976 72.8232 85.535 72.8232 84.7179C72.8232 83.9005 72.1605 83.2383 71.3429 83.2383C70.5254 83.2383 69.8626 83.9005 69.8626 84.7179C69.8626 85.535 70.5254 86.1976 71.3429 86.1976Z" fill="#F1F1F1"/>
<path d="M130.444 86.1976C131.261 86.1976 131.924 85.535 131.924 84.7179C131.924 83.9005 131.261 83.2383 130.444 83.2383C129.627 83.2383 128.964 83.9005 128.964 84.7179C128.964 85.535 129.627 86.1976 130.444 86.1976Z" fill="#F1F1F1"/>
<path d="M91.0438 57.6489C92.4025 57.6489 93.504 56.5478 93.504 55.1897C93.504 53.8315 92.4025 52.7305 91.0438 52.7305C89.685 52.7305 88.5836 53.8315 88.5836 55.1897C88.5836 56.5478 89.685 57.6489 91.0438 57.6489Z" fill="#F1F1F1"/>
<path d="M81.195 67.4926C82.5538 67.4926 83.6552 66.3916 83.6552 65.0334C83.6552 63.6752 82.5538 62.5742 81.195 62.5742C79.8363 62.5742 78.7348 63.6752 78.7348 65.0334C78.7348 66.3916 79.8363 67.4926 81.195 67.4926Z" fill="#F1F1F1"/>
<path d="M95.9638 82.2623C97.3226 82.2623 98.424 81.1612 98.424 79.803C98.424 78.4448 97.3226 77.3438 95.9638 77.3438C94.6051 77.3438 93.5036 78.4448 93.5036 79.803C93.5036 81.1612 94.6051 82.2623 95.9638 82.2623Z" fill="#F1F1F1"/>
<path d="M100.891 67.4926C102.25 67.4926 103.351 66.3916 103.351 65.0334C103.351 63.6752 102.25 62.5742 100.891 62.5742C99.5324 62.5742 98.4309 63.6752 98.4309 65.0334C98.4309 66.3916 99.5324 67.4926 100.891 67.4926Z" fill="#F1F1F1"/>
<path d="M120.593 67.4926C121.952 67.4926 123.053 66.3916 123.053 65.0334C123.053 63.6752 121.952 62.5742 120.593 62.5742C119.234 62.5742 118.133 63.6752 118.133 65.0334C118.133 66.3916 119.234 67.4926 120.593 67.4926Z" fill="#F1F1F1"/>
<path d="M120.593 77.3375C121.952 77.3375 123.053 76.2364 123.053 74.8782C123.053 73.52 121.952 72.4189 120.593 72.4189C119.234 72.4189 118.133 73.52 118.133 74.8782C118.133 76.2364 119.234 77.3375 120.593 77.3375Z" fill="#F1F1F1"/>
<path d="M110.738 77.3375C112.097 77.3375 113.199 76.2364 113.199 74.8782C113.199 73.52 112.097 72.4189 110.738 72.4189C109.38 72.4189 108.278 73.52 108.278 74.8782C108.278 76.2364 109.38 77.3375 110.738 77.3375Z" fill="#F1F1F1"/>
<path d="M91.0438 77.3381C92.4025 77.3381 93.504 76.237 93.504 74.8788C93.504 73.5207 92.4025 72.4199 91.0438 72.4199C89.685 72.4199 88.5836 73.5207 88.5836 74.8788C88.5836 76.237 89.685 77.3381 91.0438 77.3381Z" fill="#F1F1F1"/>
<path d="M81.195 77.3381C82.5538 77.3381 83.6552 76.237 83.6552 74.8788C83.6552 73.5207 82.5538 72.4199 81.195 72.4199C79.8363 72.4199 78.7348 73.5207 78.7348 74.8788C78.7348 76.237 79.8363 77.3381 81.195 77.3381Z" fill="#F1F1F1"/>
<path d="M110.738 57.6489C112.097 57.6489 113.199 56.5478 113.199 55.1897C113.199 53.8315 112.097 52.7305 110.738 52.7305C109.38 52.7305 108.278 53.8315 108.278 55.1897C108.278 56.5478 109.38 57.6489 110.738 57.6489Z" fill="#F1F1F1"/>
<path d="M120.593 57.6489C121.952 57.6489 123.053 56.5478 123.053 55.1897C123.053 53.8315 121.952 52.7305 120.593 52.7305C119.234 52.7305 118.133 53.8315 118.133 55.1897C118.133 56.5478 119.234 57.6489 120.593 57.6489Z" fill="#F1F1F1"/>
<path d="M81.195 57.6489C82.5538 57.6489 83.6552 56.5478 83.6552 55.1897C83.6552 53.8315 82.5538 52.7305 81.195 52.7305C79.8363 52.7305 78.7348 53.8315 78.7348 55.1897C78.7348 56.5478 79.8363 57.6489 81.195 57.6489Z" fill="#F1F1F1"/>
<path d="M95.9638 62.5659C97.3226 62.5659 98.424 61.4648 98.424 60.1067C98.424 58.7485 97.3226 57.6475 95.9638 57.6475C94.6051 57.6475 93.5036 58.7485 93.5036 60.1067C93.5036 61.4648 94.6051 62.5659 95.9638 62.5659Z" fill="#F1F1F1"/>
<path d="M105.816 62.5659C107.175 62.5659 108.277 61.4648 108.277 60.1067C108.277 58.7485 107.175 57.6475 105.816 57.6475C104.458 57.6475 103.356 58.7485 103.356 60.1067C103.356 61.4648 104.458 62.5659 105.816 62.5659Z" fill="#F1F1F1"/>
<path d="M105.816 82.2623C107.175 82.2623 108.277 81.1612 108.277 79.803C108.277 78.4448 107.175 77.3438 105.816 77.3438C104.458 77.3438 103.356 78.4448 103.356 79.803C103.356 81.1612 104.458 82.2623 105.816 82.2623Z" fill="#F1F1F1"/>
<path d="M110.738 97.0328C112.097 97.0328 113.199 95.9317 113.199 94.5735C113.199 93.2153 112.097 92.1143 110.738 92.1143C109.38 92.1143 108.278 93.2153 108.278 94.5735C108.278 95.9317 109.38 97.0328 110.738 97.0328Z" fill="#F1F1F1"/>
<path d="M120.593 87.1809C121.952 87.1809 123.053 86.0801 123.053 84.722C123.053 83.3638 121.952 82.2627 120.593 82.2627C119.234 82.2627 118.133 83.3638 118.133 84.722C118.133 86.0801 119.234 87.1809 120.593 87.1809Z" fill="#F1F1F1"/>
<path d="M110.738 87.1809C112.097 87.1809 113.199 86.0801 113.199 84.722C113.199 83.3638 112.097 82.2627 110.738 82.2627C109.38 82.2627 108.278 83.3638 108.278 84.722C108.278 86.0801 109.38 87.1809 110.738 87.1809Z" fill="#F1F1F1"/>
<path d="M100.891 87.1809C102.25 87.1809 103.351 86.0801 103.351 84.722C103.351 83.3638 102.25 82.2627 100.891 82.2627C99.5324 82.2627 98.4309 83.3638 98.4309 84.722C98.4309 86.0801 99.5324 87.1809 100.891 87.1809Z" fill="#F1F1F1"/>
<path d="M91.0438 87.1809C92.4025 87.1809 93.504 86.0798 93.504 84.7216C93.504 83.3638 92.4025 82.2627 91.0438 82.2627C89.685 82.2627 88.5836 83.3638 88.5836 84.7216C88.5836 86.0798 89.685 87.1809 91.0438 87.1809Z" fill="#F1F1F1"/>
<path d="M81.195 87.1809C82.5538 87.1809 83.6552 86.0798 83.6552 84.7216C83.6552 83.3638 82.5538 82.2627 81.195 82.2627C79.8363 82.2627 78.7348 83.3638 78.7348 84.7216C78.7348 86.0798 79.8363 87.1809 81.195 87.1809Z" fill="#F1F1F1"/>
<path d="M91.0438 97.0334C92.4025 97.0334 93.504 95.9323 93.504 94.5741C93.504 93.216 92.4025 92.1152 91.0438 92.1152C89.685 92.1152 88.5836 93.216 88.5836 94.5741C88.5836 95.9323 89.685 97.0334 91.0438 97.0334Z" fill="#F1F1F1"/>
<path d="M81.195 97.0334C82.5538 97.0334 83.6552 95.9323 83.6552 94.5741C83.6552 93.216 82.5538 92.1152 81.195 92.1152C79.8363 92.1152 78.7348 93.216 78.7348 94.5741C78.7348 95.9323 79.8363 97.0334 81.195 97.0334Z" fill="#F1F1F1"/>
<path d="M120.593 97.0328C121.952 97.0328 123.053 95.9317 123.053 94.5735C123.053 93.2153 121.952 92.1143 120.593 92.1143C119.234 92.1143 118.133 93.2153 118.133 94.5735C118.133 95.9317 119.234 97.0328 120.593 97.0328Z" fill="#F1F1F1"/>
<path d="M105.818 41.4026C106.363 41.4026 106.805 40.961 106.805 40.4162C106.805 39.8714 106.363 39.4297 105.818 39.4297C105.273 39.4297 104.831 39.8714 104.831 40.4162C104.831 40.961 105.273 41.4026 105.818 41.4026Z" fill="#F1F1F1"/>
<path d="M95.9633 41.4026C96.5083 41.4026 96.9502 40.961 96.9502 40.4162C96.9502 39.8714 96.5083 39.4297 95.9633 39.4297C95.4183 39.4297 94.9764 39.8714 94.9764 40.4162C94.9764 40.961 95.4183 41.4026 95.9633 41.4026Z" fill="#F1F1F1"/>
<path d="M66.4201 70.9348C66.9651 70.9348 67.4069 70.4931 67.4069 69.9483C67.4069 69.4035 66.9651 68.9619 66.4201 68.9619C65.875 68.9619 65.4332 69.4035 65.4332 69.9483C65.4332 70.4931 65.875 70.9348 66.4201 70.9348Z" fill="#F1F1F1"/>
<path d="M66.4201 80.7866C66.9651 80.7866 67.4069 80.3448 67.4069 79.8C67.4069 79.2553 66.9651 78.8135 66.4201 78.8135C65.875 78.8135 65.4332 79.2553 65.4332 79.8C65.4332 80.3448 65.875 80.7866 66.4201 80.7866Z" fill="#F1F1F1"/>
<path d="M135.369 70.9348C135.914 70.9348 136.356 70.4931 136.356 69.9483C136.356 69.4035 135.914 68.9619 135.369 68.9619C134.824 68.9619 134.382 69.4035 134.382 69.9483C134.382 70.4931 134.824 70.9348 135.369 70.9348Z" fill="#F1F1F1"/>
<path d="M135.369 80.7866C135.914 80.7866 136.356 80.3448 136.356 79.8C136.356 79.2553 135.914 78.8135 135.369 78.8135C134.824 78.8135 134.382 79.2553 134.382 79.8C134.382 80.3448 134.824 80.7866 135.369 80.7866Z" fill="#F1F1F1"/>
<path d="M95.9633 110.323C96.5083 110.323 96.9502 109.882 96.9502 109.337C96.9502 108.792 96.5083 108.351 95.9633 108.351C95.4183 108.351 94.9764 108.792 94.9764 109.337C94.9764 109.882 95.4183 110.323 95.9633 110.323Z" fill="#F1F1F1"/>
<path d="M105.818 110.323C106.363 110.323 106.805 109.882 106.805 109.337C106.805 108.792 106.363 108.351 105.818 108.351C105.273 108.351 104.831 108.792 104.831 109.337C104.831 109.882 105.273 110.323 105.818 110.323Z" fill="#F1F1F1"/>
<path d="M91.0414 67.981C92.6726 67.981 93.995 66.6592 93.995 65.0286C93.995 63.398 92.6726 62.0762 91.0414 62.0762C89.4101 62.0762 88.0877 63.398 88.0877 65.0286C88.0877 66.6592 89.4101 67.981 91.0414 67.981Z" fill="#F1F1F1"/>
<path d="M95.9631 72.8999C97.5942 72.8999 98.9167 71.5781 98.9167 69.9476C98.9167 68.317 97.5942 66.9951 95.9631 66.9951C94.3319 66.9951 93.0095 68.317 93.0095 69.9476C93.0095 71.5781 94.3319 72.8999 95.9631 72.8999Z" fill="#F1F1F1"/>
<path d="M110.736 67.981C112.367 67.981 113.689 66.6592 113.689 65.0286C113.689 63.398 112.367 62.0762 110.736 62.0762C109.105 62.0762 107.782 63.398 107.782 65.0286C107.782 66.6592 109.105 67.981 110.736 67.981Z" fill="#F1F1F1"/>
<path d="M100.889 77.824C102.52 77.824 103.843 76.5022 103.843 74.8717C103.843 73.2408 102.52 71.9189 100.889 71.9189C99.2578 71.9189 97.9353 73.2408 97.9353 74.8717C97.9353 76.5022 99.2578 77.824 100.889 77.824Z" fill="#F1F1F1"/>
<path d="M86.1143 72.8999C87.7456 72.8999 89.068 71.5781 89.068 69.9476C89.068 68.317 87.7456 66.9951 86.1143 66.9951C84.4831 66.9951 83.1607 68.317 83.1607 69.9476C83.1607 71.5781 84.4831 72.8999 86.1143 72.8999Z" fill="#F1F1F1"/>
<path d="M86.1143 82.7485C87.7456 82.7485 89.068 81.4267 89.068 79.7961C89.068 78.1656 87.7456 76.8438 86.1143 76.8438C84.4831 76.8438 83.1607 78.1656 83.1607 79.7961C83.1607 81.4267 84.4831 82.7485 86.1143 82.7485Z" fill="#F1F1F1"/>
<path d="M86.1143 63.0552C87.7456 63.0552 89.068 61.7334 89.068 60.1028C89.068 58.4722 87.7456 57.1504 86.1143 57.1504C84.4831 57.1504 83.1607 58.4722 83.1607 60.1028C83.1607 61.7334 84.4831 63.0552 86.1143 63.0552Z" fill="#F1F1F1"/>
<path d="M105.818 72.9001C107.449 72.9001 108.771 71.5783 108.771 69.9476C108.771 68.317 107.449 66.9951 105.818 66.9951C104.187 66.9951 102.864 68.317 102.864 69.9476C102.864 71.5783 104.187 72.9001 105.818 72.9001Z" fill="#F1F1F1"/>
<path d="M115.665 63.0552C117.296 63.0552 118.619 61.7334 118.619 60.1028C118.619 58.4722 117.296 57.1504 115.665 57.1504C114.033 57.1504 112.711 58.4722 112.711 60.1028C112.711 61.7334 114.033 63.0552 115.665 63.0552Z" fill="#F1F1F1"/>
<path d="M115.665 72.8999C117.296 72.8999 118.619 71.5781 118.619 69.9476C118.619 68.317 117.296 66.9951 115.665 66.9951C114.033 66.9951 112.711 68.317 112.711 69.9476C112.711 71.5781 114.033 72.8999 115.665 72.8999Z" fill="#F1F1F1"/>
<path d="M115.665 82.7485C117.296 82.7485 118.619 81.4267 118.619 79.7961C118.619 78.1656 117.296 76.8438 115.665 76.8438C114.033 76.8438 112.711 78.1656 112.711 79.7961C112.711 81.4267 114.033 82.7485 115.665 82.7485Z" fill="#F1F1F1"/>
<path d="M115.665 92.5913C117.296 92.5913 118.619 91.2694 118.619 89.6389C118.619 88.0083 117.296 86.6865 115.665 86.6865C114.033 86.6865 112.711 88.0083 112.711 89.6389C112.711 91.2694 114.033 92.5913 115.665 92.5913Z" fill="#F1F1F1"/>
<path d="M86.1143 92.5913C87.7456 92.5913 89.068 91.2694 89.068 89.6389C89.068 88.0083 87.7456 86.6865 86.1143 86.6865C84.4831 86.6865 83.1607 88.0083 83.1607 89.6389C83.1607 91.2694 84.4831 92.5913 86.1143 92.5913Z" fill="#F1F1F1"/>
<path d="M76.2702 62.0736C77.3564 62.0736 78.2369 61.1933 78.2369 60.1076C78.2369 59.0218 77.3564 58.1416 76.2702 58.1416C75.184 58.1416 74.3034 59.0218 74.3034 60.1076C74.3034 61.1933 75.184 62.0736 76.2702 62.0736Z" fill="#F1F1F1"/>
<path d="M76.2702 71.9172C77.3564 71.9172 78.2369 71.0371 78.2369 69.9513C78.2369 68.8655 77.3564 67.9854 76.2702 67.9854C75.184 67.9854 74.3034 68.8655 74.3034 69.9513C74.3034 71.0371 75.184 71.9172 76.2702 71.9172Z" fill="#F1F1F1"/>
<path d="M76.2702 81.764C77.3564 81.764 78.2369 80.884 78.2369 79.7982C78.2369 78.7124 77.3564 77.832 76.2702 77.832C75.184 77.832 74.3034 78.7124 74.3034 79.7982C74.3034 80.884 75.184 81.764 76.2702 81.764Z" fill="#F1F1F1"/>
<path d="M100.892 57.1536C101.978 57.1536 102.859 56.2734 102.859 55.1877C102.859 54.1019 101.978 53.2217 100.892 53.2217C99.8054 53.2217 98.9251 54.1019 98.9251 55.1877C98.9251 56.2734 99.8054 57.1536 100.892 57.1536Z" fill="#F1F1F1"/>
<path d="M115.668 52.2278C116.754 52.2278 117.635 51.3476 117.635 50.2619C117.635 49.1761 116.754 48.2959 115.668 48.2959C114.582 48.2959 113.701 49.1761 113.701 50.2619C113.701 51.3476 114.582 52.2278 115.668 52.2278Z" fill="#F1F1F1"/>
<path d="M105.821 52.2278C106.907 52.2278 107.788 51.3476 107.788 50.2619C107.788 49.1761 106.907 48.2959 105.821 48.2959C104.735 48.2959 103.854 49.1761 103.854 50.2619C103.854 51.3476 104.735 52.2278 105.821 52.2278Z" fill="#F1F1F1"/>
<path d="M95.9663 52.2278C97.0525 52.2278 97.9331 51.3476 97.9331 50.2619C97.9331 49.1761 97.0525 48.2959 95.9663 48.2959C94.8801 48.2959 93.9995 49.1761 93.9995 50.2619C93.9995 51.3476 94.8801 52.2278 95.9663 52.2278Z" fill="#F1F1F1"/>
<path d="M125.517 62.0736C126.603 62.0736 127.484 61.1933 127.484 60.1076C127.484 59.0218 126.603 58.1416 125.517 58.1416C124.431 58.1416 123.55 59.0218 123.55 60.1076C123.55 61.1933 124.431 62.0736 125.517 62.0736Z" fill="#F1F1F1"/>
<path d="M125.517 71.9163C126.603 71.9163 127.484 71.0361 127.484 69.9503C127.484 68.8646 126.603 67.9844 125.517 67.9844C124.431 67.9844 123.55 68.8646 123.55 69.9503C123.55 71.0361 124.431 71.9163 125.517 71.9163Z" fill="#F1F1F1"/>
<path d="M125.517 81.764C126.603 81.764 127.484 80.8837 127.484 79.7978C127.484 78.7124 126.603 77.832 125.517 77.832C124.431 77.832 123.55 78.7124 123.55 79.7978C123.55 80.8837 124.431 81.764 125.517 81.764Z" fill="#F1F1F1"/>
<path d="M86.119 52.2278C87.2052 52.2278 88.0857 51.3476 88.0857 50.2619C88.0857 49.1761 87.2052 48.2959 86.119 48.2959C85.0327 48.2959 84.1522 49.1761 84.1522 50.2619C84.1522 51.3476 85.0327 52.2278 86.119 52.2278Z" fill="#F1F1F1"/>
<path d="M125.517 91.6117C126.603 91.6117 127.484 90.7313 127.484 89.6455C127.484 88.5597 126.603 87.6797 125.517 87.6797C124.431 87.6797 123.55 88.5597 123.55 89.6455C123.55 90.7313 124.431 91.6117 125.517 91.6117Z" fill="#F1F1F1"/>
<path d="M100.892 96.5355C101.978 96.5355 102.859 95.6552 102.859 94.5693C102.859 93.4839 101.978 92.6035 100.892 92.6035C99.8054 92.6035 98.9251 93.4839 98.9251 94.5693C98.9251 95.6552 99.8054 96.5355 100.892 96.5355Z" fill="#F1F1F1"/>
<path d="M86.119 101.453C87.2052 101.453 88.0857 100.573 88.0857 99.4873C88.0857 98.4015 87.2052 97.5215 86.119 97.5215C85.0327 97.5215 84.1522 98.4015 84.1522 99.4873C84.1522 100.573 85.0327 101.453 86.119 101.453Z" fill="#F1F1F1"/>
<path d="M95.9663 101.453C97.0525 101.453 97.9331 100.573 97.9331 99.4873C97.9331 98.4018 97.0525 97.5215 95.9663 97.5215C94.8801 97.5215 93.9995 98.4018 93.9995 99.4873C93.9995 100.573 94.8801 101.453 95.9663 101.453Z" fill="#F1F1F1"/>
<path d="M105.821 101.453C106.907 101.453 107.788 100.573 107.788 99.4873C107.788 98.4015 106.907 97.5215 105.821 97.5215C104.735 97.5215 103.854 98.4015 103.854 99.4873C103.854 100.573 104.735 101.453 105.821 101.453Z" fill="#F1F1F1"/>
<path d="M105.821 91.6117C106.907 91.6117 107.788 90.7317 107.788 89.6459C107.788 88.5601 106.907 87.6797 105.821 87.6797C104.735 87.6797 103.854 88.5601 103.854 89.6459C103.854 90.7317 104.735 91.6117 105.821 91.6117Z" fill="#F1F1F1"/>
<path d="M95.9663 91.6117C97.0525 91.6117 97.9331 90.7313 97.9331 89.6455C97.9331 88.5597 97.0525 87.6797 95.9663 87.6797C94.8801 87.6797 93.9995 88.5597 93.9995 89.6455C93.9995 90.7313 94.8801 91.6117 95.9663 91.6117Z" fill="#F1F1F1"/>
<path d="M76.2702 91.6117C77.3564 91.6117 78.2369 90.7317 78.2369 89.6459C78.2369 88.5601 77.3564 87.6797 76.2702 87.6797C75.184 87.6797 74.3034 88.5601 74.3034 89.6459C74.3034 90.7317 75.184 91.6117 76.2702 91.6117Z" fill="#F1F1F1"/>
<path d="M115.668 101.453C116.754 101.453 117.635 100.573 117.635 99.4873C117.635 98.4018 116.754 97.5215 115.668 97.5215C114.582 97.5215 113.701 98.4018 113.701 99.4873C113.701 100.573 114.582 101.453 115.668 101.453Z" fill="#F1F1F1"/>
<path d="M158.664 79.2378V70.3457H160.103L163.46 75.3334L166.803 70.3457H168.227V79.2378H166.643V73.2149L163.46 77.9109L160.249 73.2287V79.2378H158.664Z" fill="#F1F1F1"/>
<path d="M174.961 79.2376L178.874 70.3457H180.299L184.212 79.2376H182.439L181.675 77.4663H177.512L176.748 79.2376H174.961ZM178.026 76.1463H181.14L179.583 72.5201L178.026 76.1463Z" fill="#F1F1F1"/>
<path d="M190.919 79.2378V70.3457H192.601V74.6043L196.562 70.3457H198.55L194.908 74.2636L198.654 79.2378H196.695L193.783 75.396L192.601 76.6327V79.2378H190.919Z" fill="#F1F1F1"/>
<path d="M205.27 79.2376V70.3457H211.233V71.7906H206.945V73.9027H210.961V75.3474H206.945V77.7928H211.323V79.2376H205.27Z" fill="#F1F1F1"/>
<path d="M218.404 79.2378V70.3457H222.045C222.893 70.3457 223.602 70.6166 224.193 71.1654C224.784 71.7003 225.083 72.3672 225.083 73.1661C225.083 74.3261 224.394 75.285 223.373 75.6949L225.645 79.2378H223.748L221.747 76.077H221.719H220.079V79.2378H218.404ZM220.085 74.6458H221.872C222.782 74.6458 223.415 74.0483 223.415 73.1938C223.415 72.3741 222.81 71.7905 222.004 71.7905H220.085V74.6458Z" fill="#F1F1F1"/>
<path d="M232.832 76.6033C233.319 77.5065 234.097 77.9582 235.181 77.9582C236.349 77.9582 236.766 77.3745 236.766 76.7978C236.766 76.4018 236.62 76.1378 236.231 75.8949C235.841 75.6378 235.556 75.5265 234.861 75.2836C234 74.9778 233.506 74.7487 232.964 74.3385C232.429 73.9149 232.172 73.3454 232.172 72.588C232.172 71.8727 232.457 71.3029 233.006 70.8514C233.569 70.4068 234.257 70.1914 235.077 70.1914C236.356 70.1914 237.322 70.6777 237.968 71.6364L236.773 72.4145C236.411 71.8934 235.862 71.6225 235.105 71.6225C234.368 71.6225 233.826 72.0185 233.826 72.5673C233.826 72.9353 233.986 73.116 234.215 73.3313C234.361 73.4356 234.736 73.5884 234.917 73.6789L235.404 73.8593L235.953 74.0607C236.842 74.4084 237.468 74.7764 237.864 75.1724C238.253 75.5684 238.455 76.1033 238.455 76.7702C238.455 78.34 237.315 79.396 235.174 79.396C233.444 79.396 232.165 78.632 231.574 77.3676L232.832 76.6033Z" fill="#F1F1F1"/>
</g>
<defs>
<clipPath id="clip0_801_336">
<rect width="177.455" height="80" fill="white" transform="translate(61 35)"/>
</clipPath>
</defs>
</svg>
