<svg width="300" height="150" viewBox="0 0 300 150" fill="none" xmlns="http://www.w3.org/2000/svg">
<g clip-path="url(#clip0_801_332)">
<path d="M225 73.4774V70.8427H221.724V66.7468L221.614 66.7807L218.537 67.721L218.476 67.7394V70.8429H213.62V69.114C213.62 68.3089 213.8 67.6929 214.155 67.282C214.508 66.8761 215.012 66.6697 215.656 66.6697C216.119 66.6697 216.598 66.7785 217.08 66.9932L217.2 67.0471V64.2724L217.144 64.2515C216.694 64.0901 216.082 64.0088 215.324 64.0088C214.369 64.0088 213.501 64.2165 212.743 64.628C211.986 65.0402 211.39 65.6286 210.972 66.3767C210.556 67.1239 210.345 67.9869 210.345 68.9419V70.8427H208.064V73.4774H210.345V84.5769H213.62V73.4774H218.476V80.5309C218.476 83.4359 219.848 84.908 222.554 84.908C222.999 84.908 223.466 84.856 223.944 84.7541C224.431 84.6495 224.762 84.545 224.957 84.4334L225 84.4079V81.7489L224.867 81.8368C224.689 81.9551 224.468 82.0517 224.208 82.1236C223.948 82.1968 223.73 82.2335 223.562 82.2335C222.928 82.2335 222.459 82.0629 222.168 81.7262C221.874 81.3866 221.724 80.7925 221.724 79.9615V73.4774H225ZM200.752 82.2339C199.563 82.2339 198.626 81.8403 197.966 81.065C197.301 80.2857 196.965 79.1747 196.965 77.7632C196.965 76.3069 197.301 75.1671 197.966 74.3741C198.627 73.5863 199.555 73.1864 200.725 73.1864C201.86 73.1864 202.764 73.5683 203.412 74.322C204.062 75.0797 204.393 76.2104 204.393 77.6836C204.393 79.175 204.082 80.3206 203.47 81.087C202.862 81.8475 201.947 82.2339 200.752 82.2339V82.2339ZM200.897 70.5119C198.63 70.5119 196.829 71.1755 195.544 72.4843C194.261 73.7932 193.61 75.6046 193.61 77.8686C193.61 80.0189 194.246 81.7486 195.498 83.0087C196.751 84.2692 198.456 84.9077 200.566 84.9077C202.764 84.9077 204.529 84.2349 205.812 82.9079C207.096 81.5825 207.746 79.7882 207.746 77.5771C207.746 75.3931 207.136 73.6506 205.932 72.3989C204.727 71.1466 203.033 70.5119 200.897 70.5119V70.5119ZM188.331 70.5119C186.788 70.5119 185.513 70.9059 184.538 71.6829C183.557 72.4644 183.06 73.4895 183.06 74.7298C183.06 75.3746 183.167 75.9473 183.379 76.4331C183.591 76.9205 183.92 77.3496 184.357 77.7097C184.791 78.067 185.46 78.4412 186.347 78.8219C187.093 79.1284 187.649 79.3876 188.003 79.592C188.348 79.7923 188.593 79.9936 188.732 80.1896C188.866 80.3815 188.934 80.6441 188.934 80.9682C188.934 81.8909 188.243 82.3398 186.819 82.3398C186.291 82.3398 185.689 82.2297 185.029 82.0126C184.374 81.7988 183.755 81.4857 183.196 81.0842L183.06 80.9869V84.1356L183.109 84.1588C183.573 84.3724 184.157 84.5525 184.846 84.6943C185.533 84.8361 186.157 84.9083 186.699 84.9083C188.373 84.9083 189.721 84.5124 190.705 83.7308C191.694 82.9439 192.196 81.8946 192.196 80.6114C192.196 79.6856 191.926 78.8917 191.394 78.2514C190.865 77.6164 189.948 77.0334 188.668 76.518C187.648 76.1094 186.995 75.7701 186.726 75.5097C186.466 75.2581 186.334 74.9023 186.334 74.4517C186.334 74.0523 186.497 73.7323 186.831 73.4732C187.168 73.2128 187.637 73.0803 188.225 73.0803C188.77 73.0803 189.329 73.1664 189.884 73.3351C190.439 73.5038 190.926 73.7297 191.332 74.0061L191.466 74.0974V71.1106L191.415 71.0885C191.04 70.9278 190.545 70.7903 189.944 70.6787C189.346 70.5678 188.803 70.5119 188.331 70.5119V70.5119ZM174.523 82.2339C173.335 82.2339 172.398 81.8403 171.737 81.065C171.073 80.2857 170.737 79.175 170.737 77.7632C170.737 76.3069 171.073 75.1671 171.738 74.3741C172.398 73.5863 173.326 73.1864 174.497 73.1864C175.632 73.1864 176.536 73.5683 177.183 74.322C177.834 75.0797 178.164 76.2104 178.164 77.6836C178.164 79.175 177.854 80.3206 177.241 81.087C176.633 81.8475 175.719 82.2339 174.523 82.2339V82.2339ZM174.669 70.5119C172.401 70.5119 170.6 71.1755 169.317 72.4843C168.033 73.7932 167.382 75.6046 167.382 77.8686C167.382 80.0198 168.018 81.7486 169.271 83.0087C170.523 84.2692 172.228 84.9077 174.338 84.9077C176.535 84.9077 178.301 84.2349 179.584 82.9079C180.868 81.5825 181.518 79.7882 181.518 77.5771C181.518 75.3931 180.908 73.6506 179.704 72.3989C178.499 71.1466 176.805 70.5119 174.669 70.5119V70.5119ZM162.412 73.2212V70.8427H159.177V84.5766H162.412V77.5512C162.412 76.3566 162.683 75.3752 163.218 74.6339C163.746 73.9015 164.45 73.5303 165.31 73.5303C165.601 73.5303 165.928 73.5783 166.282 73.6732C166.633 73.7676 166.887 73.87 167.037 73.9778L167.173 74.0762V70.8193L167.12 70.7968C166.819 70.669 166.393 70.6045 165.854 70.6045C165.041 70.6045 164.313 70.8653 163.69 71.379C163.143 71.8304 162.748 72.4493 162.446 73.2212H162.412ZM153.384 70.5119C151.9 70.5119 150.577 70.8297 149.451 71.4562C148.323 72.0841 147.45 72.9806 146.856 74.1206C146.265 75.2578 145.965 76.5861 145.965 78.0675C145.965 79.3652 146.256 80.556 146.831 81.6055C147.407 82.6568 148.221 83.4792 149.252 84.0496C150.281 84.6193 151.471 84.9082 152.788 84.9082C154.325 84.9082 155.638 84.6012 156.69 83.9959L156.733 83.9715V81.0118L156.597 81.1109C156.12 81.4577 155.587 81.7345 155.014 81.9339C154.442 82.1332 153.921 82.2339 153.464 82.2339C152.195 82.2339 151.176 81.8373 150.436 81.0553C149.695 80.2722 149.319 79.1727 149.319 77.7891C149.319 76.3969 149.711 75.2691 150.484 74.437C151.254 73.6073 152.275 73.1864 153.518 73.1864C154.581 73.1864 155.617 73.546 156.597 74.2561L156.733 74.3545V71.2359L156.689 71.2113C156.32 71.0051 155.817 70.8348 155.192 70.7056C154.57 70.5768 153.962 70.5119 153.384 70.5119V70.5119ZM143.738 70.8429H140.503V84.5766H143.738V70.8429V70.8429ZM142.153 64.9922C141.621 64.9922 141.157 65.1732 140.775 65.5319C140.392 65.8916 140.198 66.3445 140.198 66.879C140.198 67.405 140.39 67.8497 140.769 68.1998C141.146 68.5489 141.612 68.7259 142.154 68.7259C142.695 68.7259 143.162 68.5489 143.544 68.2004C143.928 67.8497 144.123 67.4052 144.123 66.879C144.123 66.3632 143.933 65.915 143.56 65.5464C143.187 65.1786 142.713 64.9922 142.153 64.9922ZM134.083 69.8296V84.5766H137.384V65.4127H132.815L127.008 79.6471L121.372 65.4127H116.617V84.5764H119.719V69.8281H119.826L125.777 84.5766H128.118L133.976 69.8296H134.083V69.8296Z" fill="white"/>
<path d="M90.2167 74.2055H75V59.0078H90.2167V74.2055Z" fill="white"/>
<path d="M107.018 74.2055H91.8012V59.0078H107.018V74.2055Z" fill="white"/>
<path d="M90.2163 90.9915H75V75.7939H90.2163V90.9915Z" fill="white"/>
<path d="M107.018 90.9915H91.8012V75.7939H107.018V90.9915Z" fill="white"/>
</g>
<defs>
<clipPath id="clip0_801_332">
<rect width="150" height="32" fill="white" transform="translate(75 59)"/>
</clipPath>
</defs>
</svg>
