<svg width="300" height="150" viewBox="0 0 300 150" fill="none" xmlns="http://www.w3.org/2000/svg">
<g clip-path="url(#clip0_801_331)">
<path fill-rule="evenodd" clip-rule="evenodd" d="M65.8546 81.2804V67.4025H68.2978L73.2248 78.9742L78.1518 67.4025H80.595V81.2804H78.7777V69.6278L73.9113 81.2804H72.5383L67.6719 69.6278V81.2804H65.8546ZM83.2201 69.6278V67.4025H84.8355V69.6278H83.2201ZM83.2201 81.2804V71.1653H84.8355V81.2804H83.2201ZM87.2586 81.2804V71.1653H88.8739V72.46C89.5807 71.5699 90.8528 70.963 92.024 70.963C94.548 70.963 96.224 72.5814 96.224 75.009V81.2804H94.6086V75.2923C94.6086 73.5525 93.4576 72.3791 91.7413 72.3791C90.0249 72.3791 88.8739 73.5525 88.8739 75.2923V81.2804H87.2586ZM98.6471 69.6278V67.4025H100.262V69.6278H98.6471ZM98.6471 81.2804V71.1653H100.262V81.2804H98.6471ZM106.603 81.4827C104.018 81.4827 102.241 80.0261 102.201 77.8413H103.715C103.756 79.1765 104.907 80.0666 106.603 80.0666C108.239 80.0666 109.349 79.4192 109.349 78.4482C109.349 77.639 108.622 77.1939 106.502 76.7084C103.796 76.1015 102.847 75.3732 102.847 73.8762C102.847 72.1364 104.362 70.963 106.603 70.963C108.42 70.963 109.995 71.9947 110.54 73.5322L109.066 73.8964C108.764 72.986 107.774 72.3791 106.603 72.3791C105.331 72.3791 104.463 72.9253 104.463 73.7548C104.463 74.4426 105.088 74.827 106.845 75.2518C109.894 75.8789 110.944 76.6882 110.944 78.3673C110.944 80.2284 109.208 81.4827 106.603 81.4827ZM116.901 81.4827C115.104 81.4827 113.892 80.37 113.892 78.6909V72.5814H112.277V71.1653H113.892V67.4025H115.508V71.1653H118.456V72.5814H115.508V78.6909C115.508 79.5204 116.033 80.0666 116.8 80.0666H118.557V81.2804C118.052 81.4018 117.386 81.4827 116.901 81.4827ZM120.374 81.2804V71.1653H121.99V72.5612C122.716 71.6104 123.867 70.963 124.877 70.963C125.18 70.963 125.503 71.0439 125.705 71.1653V72.3791H125.018C123.201 72.3791 121.99 73.5727 121.99 75.3732V81.2804H120.374ZM128.916 85.0432L130.632 80.6735L126.795 71.1653H128.512L131.46 78.5898L134.368 71.1653H136.104L130.652 85.0432H128.916ZM147.19 81.4827C144.161 81.4827 142.121 79.3788 142.121 76.2229C142.121 73.0669 144.161 70.963 147.19 70.963C150.219 70.963 152.258 73.0669 152.258 76.2229C152.258 79.3788 150.219 81.4827 147.19 81.4827ZM147.19 80.0666C149.249 80.0666 150.643 78.5291 150.643 76.2229C150.643 73.9166 149.249 72.3791 147.19 72.3791C145.13 72.3791 143.737 73.9166 143.737 76.2229C143.737 78.5291 145.13 80.0666 147.19 80.0666ZM155.206 81.2804V72.5814H153.591V71.1653H155.206V70.0324C155.206 68.3331 156.317 67.2002 157.993 67.2002C158.376 67.2002 158.821 67.2811 159.083 67.4025V68.677H158.114C157.347 68.677 156.822 69.2232 156.822 70.0324V71.1653H159.083V72.5814H156.822V81.2804H155.206ZM171.259 81.4827C167.645 81.4827 165.222 79.4799 165.222 76.5061H166.938C166.938 78.5089 168.675 79.8643 171.259 79.8643C173.601 79.8643 175.176 78.8528 175.176 77.3355C175.176 76.2026 174.126 75.5553 171.077 74.8472C167.443 73.9975 166.171 73.0265 166.171 71.0844C166.171 68.7579 168.21 67.2002 171.259 67.2002C173.844 67.2002 175.984 68.7984 176.57 71.1855L174.914 71.5901C174.551 69.9313 173.076 68.8186 171.259 68.8186C169.3 68.8186 167.988 69.729 167.988 71.0844C167.988 72.0554 168.876 72.5814 171.441 73.1681C175.56 74.1391 176.994 75.2113 176.994 77.3355C176.994 79.8238 174.692 81.4827 171.259 81.4827ZM187.898 71.1653V81.2804H186.282V79.9857C185.576 80.8758 184.303 81.4827 183.132 81.4827C180.608 81.4827 178.932 79.8643 178.932 77.4367V71.1653H180.548V77.1534C180.548 78.8932 181.699 80.0666 183.415 80.0666C185.131 80.0666 186.282 78.8932 186.282 77.1534V71.1653H187.898ZM190.321 85.0432V71.1653H191.936V72.8849C192.724 71.7318 194.198 70.963 195.631 70.963C198.62 70.963 200.619 73.0669 200.619 76.2229C200.619 79.3788 198.62 81.4827 195.631 81.4827C194.198 81.4827 192.724 80.714 191.936 79.5608V85.0432H190.321ZM195.47 80.0666C197.59 80.0666 199.004 78.5291 199.004 76.2229C199.004 73.9166 197.59 72.3791 195.47 72.3791C193.35 72.3791 191.936 73.9166 191.936 76.2229C191.936 78.5291 193.35 80.0666 195.47 80.0666ZM202.557 85.0432V71.1653H204.173V72.8849C204.96 71.7318 206.434 70.963 207.868 70.963C210.857 70.963 212.856 73.0669 212.856 76.2229C212.856 79.3788 210.857 81.4827 207.868 81.4827C206.434 81.4827 204.96 80.714 204.173 79.5608V85.0432H202.557ZM207.707 80.0666C209.827 80.0666 211.24 78.5291 211.24 76.2229C211.24 73.9166 209.827 72.3791 207.707 72.3791C205.586 72.3791 204.173 73.9166 204.173 76.2229C204.173 78.5291 205.586 80.0666 207.707 80.0666ZM214.794 81.2804V67.4025H216.409V81.2804H214.794ZM220.226 85.0432L221.942 80.6735L218.106 71.1653H219.822L222.77 78.5898L225.678 71.1653H227.414L221.962 85.0432H220.226Z" fill="white" stroke="white" stroke-width="0.820369"/>
</g>
<defs>
<clipPath id="clip0_801_331">
<rect width="170" height="20.5025" fill="white" transform="translate(65 65)"/>
</clipPath>
</defs>
</svg>
