<svg width="300" height="150" viewBox="0 0 300 150" fill="none" xmlns="http://www.w3.org/2000/svg">
<path d="M146.516 97V87.4528H129.497L139.044 77.9057C139.874 77.2138 140.428 76.2453 140.428 75.1384C140.428 74.0314 139.874 73.0629 139.044 72.3711L129.358 62.5472H146.516V53H119.396H119.258C116.352 53 114 55.3522 114 58.3962C114 59.9182 114.692 61.3019 115.66 62.2704L128.113 75L115.66 87.8679C114.692 88.8365 114.138 90.2201 114.138 91.6038C114.138 94.5094 116.491 97 119.535 97C119.673 97 119.95 97 120.088 97H146.516V97Z" fill="white"/>
<path d="M151.359 63.1006L171.56 74.7233L151.497 86.8994V97L182.352 79.7044C184.151 78.7358 185.396 76.9371 185.396 74.7233C185.396 72.5094 184.151 70.7107 182.214 69.7421L151.22 53L151.359 63.1006Z" fill="white"/>
</svg>
