<svg width="300" height="150" viewBox="0 0 300 150" fill="none" xmlns="http://www.w3.org/2000/svg">
<path fill-rule="evenodd" clip-rule="evenodd" d="M108.979 67.8301C110.647 65.9364 113.026 65.3979 115.408 65.0851C118.755 64.6453 122.745 65.9126 124.604 68.8359C125.663 70.5013 125.662 72.5519 125.662 74.4564L125.662 74.5811C125.662 75.5316 125.633 76.4709 125.592 77.4173C125.586 77.5499 125.585 77.6814 125.584 77.8123C125.583 78.1181 125.581 78.4207 125.515 78.7263C125.343 79.5277 125.089 80.3331 124.693 81.0535C123.357 83.4875 120.711 84.4809 118.098 84.8144C114.898 85.2229 111.051 84.6174 108.848 82.0651C107.217 80.1755 107.19 77.7387 107.19 75.381C107.19 75.258 107.189 75.1348 107.189 75.0116C107.185 72.4593 107.181 69.8715 108.979 67.8301ZM172.595 69.3452C174.028 66.4611 176.938 65.4808 179.914 65.0853C180.691 64.982 181.538 65.032 182.314 65.1151C184.756 65.3766 187.305 66.1968 188.828 68.2572C189.909 69.7198 190.127 71.2991 190.247 73.0541C190.338 74.3868 190.338 75.7212 190.247 77.0539C190.131 78.7552 189.91 80.4516 188.804 81.8413C187.315 83.7156 185.054 84.5279 182.75 84.8146C179.563 85.2111 175.655 84.642 173.463 82.0719C172.557 81.0088 171.993 79.5308 171.854 78.1448C171.798 77.5882 171.813 77.0135 171.828 76.4444L171.828 76.4436C171.835 76.1845 171.841 75.9267 171.841 75.6721C171.841 75.2818 171.825 74.8768 171.808 74.4665L171.808 74.466C171.768 73.4995 171.727 72.5033 171.9 71.5996C172.046 70.8329 172.247 70.046 172.595 69.3452ZM199.913 65.0849C197.652 65.3827 195.382 65.8755 193.738 67.6005C191.695 69.7431 191.695 72.5034 191.695 75.273V75.3082C191.695 77.7781 191.778 80.2741 193.525 82.2169C195.722 84.6576 199.49 85.2018 202.604 84.8143C203.561 84.6952 204.54 84.5401 205.44 84.1794C206.073 83.926 206.712 83.6303 207.258 83.2177C207.916 82.7205 208.474 82.1676 208.947 81.4897C210.252 79.6217 210.246 77.2141 210.24 75.0111C210.24 74.8668 210.24 74.7233 210.24 74.5809C210.24 72.4782 210.139 70.2568 208.889 68.4721C207.355 66.281 204.788 65.3875 202.24 65.1147C201.486 65.034 200.668 64.9854 199.913 65.0849ZM77.8276 79.2169C77.5516 78.7481 77.2611 78.2547 76.8638 77.9265V82.4354C76.8638 82.5557 76.8715 82.6899 76.8795 82.8309C76.9076 83.3211 76.9402 83.8926 76.6709 84.2458C76.3609 84.6524 75.8439 84.6367 75.3702 84.6223C75.2844 84.6197 75.1999 84.6171 75.1184 84.6171H71.5549H71.5363C70.937 84.6172 70.3666 84.6172 70.1011 83.9626C69.9841 83.674 70.0014 83.3112 70.0173 82.9759C70.0226 82.8641 70.0277 82.7554 70.0277 82.6536V79.9628V70.5814V67.4542C70.0277 67.3388 70.0212 67.2142 70.0145 67.0856C69.9953 66.7157 69.9742 66.3126 70.1011 65.9998C70.3048 65.4978 70.7662 65.3585 71.2641 65.3463C72.0449 65.3271 72.8276 65.3332 73.6097 65.3393C73.9916 65.3423 74.3734 65.3452 74.7548 65.3452L74.8474 65.3451C75.364 65.3437 75.9545 65.3421 76.3413 65.7226C76.7824 66.1566 77.1222 66.7905 77.4335 67.3715L77.4335 67.3715C77.5161 67.5256 77.5967 67.676 77.6766 67.8179C78.0733 68.5219 78.5094 69.2084 78.9446 69.8935L78.9446 69.8936L78.9447 69.8937L78.9447 69.8937L78.9448 69.8938C79.1518 70.2197 79.3586 70.5453 79.5608 70.8723C79.6731 71.0538 79.7796 71.2514 79.8875 71.4518C80.1118 71.8682 80.3426 72.2966 80.6454 72.6176V67.7451C80.6454 67.6125 80.6375 67.4639 80.629 67.3074V67.3074C80.5999 66.7671 80.5658 66.1325 80.8381 65.7328C81.1224 65.3154 81.6341 65.329 82.0951 65.3412C82.1712 65.3433 82.246 65.3452 82.3181 65.3452H85.9543C85.9996 65.3452 86.0449 65.3449 86.09 65.3445C86.5943 65.3403 87.0748 65.3364 87.3477 65.8572C87.5163 66.1789 87.502 66.5758 87.4886 66.9475L87.4885 66.9476C87.485 67.0462 87.4815 67.1429 87.4815 67.2361V69.9269V79.89V82.8717C87.4815 82.947 87.4835 83.024 87.4855 83.1017L87.4855 83.1018C87.4955 83.4945 87.5061 83.9073 87.2655 84.2324C86.9708 84.6305 86.555 84.6247 86.1174 84.6186C86.0633 84.6179 86.0089 84.6171 85.9543 84.6171H82.9726C82.8727 84.6171 82.7678 84.6214 82.6605 84.6257C82.271 84.6416 81.85 84.6588 81.521 84.4775C81.0219 84.2025 80.6663 83.605 80.3508 83.0748C80.263 82.9273 80.1783 82.785 80.0945 82.6564C79.7935 82.1944 79.484 81.7377 79.1744 81.2811C78.8131 80.748 78.4517 80.2149 78.1037 79.673C78.011 79.5285 77.9201 79.3741 77.8276 79.2169ZM96.8629 78.8719V77.7084H102.39C102.549 77.7084 102.732 77.72 102.925 77.7323C103.515 77.7698 104.204 77.8138 104.637 77.5527C105.002 77.332 105.076 76.8618 105.08 76.472C105.089 75.7717 105.086 75.0709 105.083 74.3702V74.37V74.3699V74.3697C105.082 74.1008 105.081 73.8319 105.081 73.5631C105.08 73.1081 105.015 72.6156 104.559 72.3852C104.095 72.1506 103.419 72.1924 102.822 72.2292C102.616 72.2419 102.42 72.2541 102.244 72.2541H96.8629V71.0905H103.117C103.251 71.0905 103.407 71.0998 103.574 71.1099C104.212 71.1483 105.014 71.1965 105.397 70.771C105.657 70.4825 105.662 70.0727 105.663 69.7087V68.0361C105.663 67.8813 105.673 67.7067 105.684 67.5225C105.723 66.8914 105.768 66.1481 105.416 65.7103C105.116 65.3385 104.753 65.3413 104.33 65.3446C104.29 65.345 104.249 65.3453 104.208 65.3453H102.026H93.2994H91.2632C90.8754 65.3459 90.4782 65.3478 90.1887 65.6467C89.8746 65.9708 89.8778 66.4025 89.8808 66.8224C89.8811 66.8635 89.8814 66.9045 89.8814 66.9452V69.4905V80.2537V83.0172L89.8813 83.0598L89.8811 83.1186C89.8791 83.5788 89.877 84.0393 90.2529 84.3739C90.6362 84.7151 91.3224 84.6726 91.8981 84.6369C92.0622 84.6267 92.2174 84.6171 92.354 84.6171H97.881H103.554C103.676 84.6171 103.819 84.626 103.972 84.6355L103.972 84.6355C104.556 84.6719 105.287 84.7175 105.625 84.3107C105.81 84.0885 105.809 83.7968 105.808 83.522L105.808 83.4535V81.9263V80.1082L105.808 80.0759C105.808 79.7542 105.807 79.4281 105.569 79.1792C105.166 78.7567 104.344 78.8084 103.683 78.85C103.503 78.8613 103.335 78.8719 103.19 78.8719H96.8629ZM135.346 79.1865C135.063 78.7125 134.77 78.2212 134.388 77.8535V82.4351C134.388 82.5549 134.396 82.6889 134.403 82.8301C134.431 83.3382 134.464 83.9387 134.179 84.302C133.899 84.6592 133.407 84.6403 132.973 84.6235C132.884 84.6201 132.797 84.6168 132.716 84.6168H129.08L129.016 84.6169C128.485 84.6178 127.927 84.6188 127.688 84.0347C127.574 83.7579 127.594 83.394 127.612 83.062C127.619 82.9442 127.625 82.8304 127.625 82.726V79.9624V70.3629V67.3085C127.625 67.202 127.619 67.0865 127.613 66.9669L127.613 66.9667C127.594 66.5868 127.572 66.165 127.731 65.8551C127.995 65.3404 128.486 65.3425 128.983 65.3446L129.08 65.3449H132.28C132.351 65.3449 132.424 65.3437 132.496 65.3424C132.961 65.3343 133.43 65.3261 133.804 65.6522C134.143 65.9477 134.374 66.3667 134.598 66.7732C134.686 66.932 134.772 67.0889 134.864 67.2357C135.22 67.8072 135.568 68.384 135.916 68.9608L135.916 68.961C136.35 69.6811 136.785 70.4012 137.235 71.1109C137.339 71.2747 137.437 71.4541 137.536 71.636L137.536 71.6361L137.536 71.6362C137.743 72.0158 137.956 72.4064 138.243 72.69V67.6721C138.243 67.5382 138.232 67.3796 138.22 67.2095C138.184 66.6907 138.14 66.066 138.381 65.7162C138.663 65.3042 139.194 65.3227 139.66 65.3389C139.748 65.3419 139.834 65.3449 139.916 65.3449H143.552L143.612 65.3449C144.154 65.3441 144.672 65.3433 144.927 65.927C145.052 66.2122 145.034 66.5799 145.017 66.917V66.9171V66.9173C145.012 67.0281 145.006 67.1356 145.006 67.2357V69.9993V79.6716V82.726C145.006 82.8248 145.011 82.9308 145.016 83.0401C145.034 83.4047 145.053 83.8065 144.892 84.1066C144.618 84.6171 144.159 84.617 143.652 84.6168L143.624 84.6168H140.352C140.27 84.6168 140.187 84.619 140.103 84.6213C139.68 84.6326 139.245 84.6442 138.898 84.37C138.476 84.0361 138.172 83.5348 137.882 83.0565L137.882 83.0563C137.785 82.8969 137.69 82.7401 137.592 82.5929C137.341 82.2138 137.086 81.8373 136.831 81.4609L136.831 81.4608L136.831 81.4606C136.431 80.8684 136.03 80.2764 135.644 79.6744C135.543 79.5181 135.445 79.3536 135.346 79.1869L135.346 79.1867L135.346 79.1865ZM153.738 65.3218C153.475 65.311 153.206 65.3183 153.006 65.4196C152.533 65.6593 152.401 66.1909 152.38 66.7553L152.378 66.8181C152.378 66.8391 152.377 66.8601 152.377 66.8811L152.377 66.9442L152.377 67.0074L152.378 67.0705L152.38 67.1335L152.383 67.2276L152.386 67.2899L152.392 67.4133L152.414 67.7954L152.418 67.878L152.42 67.9315L152.422 67.9838L152.424 68.0597L152.424 68.1084V81.7805L152.424 81.8124C152.424 81.8339 152.423 81.8558 152.423 81.8781L152.421 81.946L152.418 82.016L152.412 82.1246L152.407 82.199L152.385 82.5502L152.38 82.6308L152.376 82.7118L152.374 82.7525L152.371 82.8341L152.369 82.9158C152.358 83.3922 152.397 83.8652 152.617 84.1801C152.84 84.4992 153.106 84.5862 153.416 84.6092L153.462 84.6121C153.477 84.613 153.492 84.6137 153.508 84.6143L153.555 84.6157L153.602 84.6166L153.675 84.6172L153.852 84.6168L160.424 84.6168C160.538 84.6168 160.653 84.6165 160.768 84.616L160.906 84.6151L161.043 84.6138L161.181 84.6121L161.388 84.6085L161.525 84.6054L161.663 84.6017L161.8 84.5973C161.846 84.5957 161.892 84.594 161.938 84.5921L162.075 84.5862C162.121 84.5841 162.166 84.5818 162.212 84.5794L162.349 84.5717C163.765 84.4874 165.157 84.2505 166.46 83.5993C166.988 83.3354 167.475 83.0095 167.917 82.6212C168.348 82.2434 168.778 81.8186 169.1 81.3413C170.01 79.9896 170.278 78.4429 170.355 76.8687L170.361 76.741L170.364 76.6772L170.369 76.5493L170.373 76.4214L170.376 76.2934L170.379 76.1655L170.381 76.0374L170.383 75.9095L170.385 75.7175L170.386 75.5257L170.387 75.3341L170.387 74.6536L170.386 74.4474L170.385 74.242L170.383 74.1055L170.381 73.9694L170.378 73.8335L170.375 73.6981L170.37 73.563L170.368 73.4956L170.362 73.3611C170.281 71.5477 169.953 69.8404 168.75 68.3266C166.537 65.544 162.914 65.3053 159.538 65.3211L159.286 65.3227L158.909 65.3265L158.041 65.3377L157.797 65.3405L157.555 65.3428C157.395 65.3441 157.236 65.3449 157.078 65.3449H154.242L154.212 65.3447L154.181 65.3441L154.118 65.342L154.052 65.3389L153.81 65.3251L153.738 65.3218ZM163.914 77.7807V72.1809L164.004 72.1802L164.096 72.1784L164.414 72.1697L164.512 72.168L164.577 72.1675L164.643 72.1676C165.112 72.1713 165.583 72.2355 165.912 72.5729C166.144 72.8109 166.213 73.1068 166.233 73.4145L166.236 73.4706L166.237 73.4987L166.239 73.555L166.24 73.5832L166.241 73.6397L166.242 73.7245L166.241 76.1935L166.241 76.2789L166.239 76.3641L166.237 76.4206L166.235 76.4769C166.215 76.8423 166.141 77.191 165.854 77.4696C165.562 77.7534 165.123 77.8057 164.688 77.804L164.623 77.8033L164.59 77.8027L164.525 77.8011L164.429 77.7979L164.117 77.785L164.028 77.7822L163.971 77.7811C163.961 77.781 163.951 77.7809 163.942 77.7808C163.933 77.7807 163.924 77.7807 163.914 77.7807ZM219.45 78.7965C219.408 78.7978 219.368 78.7991 219.33 78.7991V82.5807C219.33 82.6915 219.337 82.813 219.343 82.9395C219.366 83.3651 219.392 83.8482 219.184 84.1775C218.895 84.6345 218.389 84.6265 217.91 84.6189C217.85 84.6179 217.79 84.617 217.73 84.617H213.876C213.793 84.617 213.706 84.62 213.617 84.6232C213.176 84.6387 212.683 84.6561 212.38 84.3105C212.122 84.0168 212.126 83.5914 212.13 83.2149C212.13 83.1725 212.13 83.1307 212.13 83.0898V80.399V69.7086V66.7996L212.13 66.7511C212.13 66.3207 212.129 65.8258 212.502 65.538C212.802 65.3065 213.227 65.3231 213.61 65.338C213.702 65.3416 213.791 65.3451 213.876 65.3451H217.148H219.185L219.27 65.3451C222.469 65.3449 226.398 65.3446 228.404 68.3257C228.806 68.9237 229.074 69.5304 229.291 70.2176C229.386 70.5187 229.407 70.803 229.429 71.101C229.435 71.1928 229.442 71.2859 229.451 71.3812C229.596 72.8996 229.347 74.3668 228.507 75.6691C228.203 76.1404 227.777 76.5486 227.373 76.9363L227.33 76.9781C227.294 77.0126 227.251 77.0483 227.206 77.0856C227.049 77.2172 226.867 77.3697 226.862 77.5656C226.854 77.9115 227.159 78.3819 227.404 78.759C227.483 78.8817 227.557 78.9945 227.61 79.0899C228.217 80.166 228.808 81.2649 229.376 82.3625C229.428 82.4638 229.493 82.5732 229.562 82.6879C229.787 83.0631 230.046 83.4956 229.993 83.8897C229.893 84.6254 229.191 84.6211 228.611 84.6175C228.571 84.6172 228.532 84.617 228.493 84.617H223.766C223.748 84.6169 223.729 84.617 223.711 84.617C223.484 84.6172 223.253 84.6174 223.039 84.5335C222.46 84.3068 222.218 83.7297 221.99 83.1878C221.944 83.08 221.9 82.9736 221.853 82.8716C221.698 82.5335 221.546 82.1946 221.393 81.8558C221.163 81.3452 220.932 80.8345 220.696 80.3263C220.645 80.2165 220.594 80.073 220.54 79.918C220.4 79.5191 220.233 79.0444 219.96 78.8738C219.817 78.7846 219.623 78.7909 219.45 78.7965Z" fill="white"/>
</svg>
