<svg width="300" height="150" viewBox="0 0 300 150" fill="none" xmlns="http://www.w3.org/2000/svg">
<path fill-rule="evenodd" clip-rule="evenodd" d="M89.7934 62V74.4005C89.7934 81.249 84.2433 86.8009 77.3965 86.8009C70.5501 86.8009 65 81.249 65 74.4005C65 67.5519 70.5501 62 77.3965 62H89.7934ZM116.285 62L91.4915 86.8009V74.4005C91.4915 67.5519 97.0416 62 103.888 62H116.285ZM141.895 68.2126V75.1071C141.895 77.5354 142.944 78.7494 145.042 78.7494C147.127 78.7494 148.17 77.5354 148.17 75.1071V68.2126H150.432V75.1959C150.432 76.9869 149.958 78.3636 149.009 79.3238C148.061 80.2849 146.733 80.7648 145.024 80.7648C143.316 80.7648 141.984 80.2849 141.029 79.3238C140.075 78.3636 139.597 76.9869 139.597 75.1959V68.2126H141.895ZM130.249 68.0354C131.51 68.0354 132.646 68.3092 133.659 68.8583C134.673 69.406 135.468 70.1637 136.046 71.1292C136.623 72.096 136.912 73.1866 136.912 74.4006C136.912 75.6141 136.623 76.7051 136.046 77.6706C135.468 78.6374 134.673 79.3947 133.659 79.9424C132.646 80.491 131.51 80.7648 130.249 80.7648C128.987 80.7648 127.851 80.491 126.838 79.9424C125.824 79.3947 125.029 78.6344 124.451 77.6614C123.874 76.6898 123.586 75.6018 123.586 74.4006C123.586 73.1988 123.874 72.1108 124.451 71.1388C125.029 70.1659 125.824 69.406 126.838 68.8583C127.851 68.3092 128.987 68.0354 130.249 68.0354ZM188.094 68.0354C189.355 68.0354 190.491 68.3092 191.504 68.8583C192.518 69.406 193.313 70.1637 193.891 71.1292C194.468 72.096 194.757 73.1866 194.757 74.4006C194.757 75.6141 194.468 76.7051 193.891 77.6706C193.313 78.6374 192.518 79.3947 191.504 79.9424C190.491 80.491 189.355 80.7648 188.094 80.7648C186.832 80.7648 185.695 80.491 184.682 79.9424C183.669 79.3947 182.873 78.6344 182.296 77.6614C181.72 76.6898 181.431 75.6018 181.431 74.4006C181.431 73.1988 181.72 72.1108 182.296 71.1388C182.873 70.1659 183.669 69.406 184.682 68.8583C185.695 68.3092 186.832 68.0354 188.094 68.0354ZM169.183 77.7774C169.595 77.7774 169.94 77.913 170.217 78.1838C170.494 78.4554 170.632 78.8085 170.632 79.2442C170.632 79.6685 170.491 80.0203 170.209 80.2963C169.925 80.5732 169.584 80.7123 169.183 80.7123C168.782 80.7123 168.44 80.5732 168.158 80.2963C167.875 80.0203 167.734 79.6685 167.734 79.2442C167.734 78.8085 167.873 78.4554 168.149 78.1838C168.425 77.913 168.77 77.7774 169.183 77.7774ZM159.092 68.2126C160.164 68.2126 161.098 68.3893 161.894 68.7428C162.689 69.0967 163.299 69.6028 163.723 70.2639C164.146 70.9236 164.359 71.7071 164.359 72.6144C164.359 73.5457 164.132 74.3476 163.679 75.0187C163.224 75.6902 162.574 76.192 161.725 76.5218L164.571 80.5885H162.097L159.57 76.9637C159.462 76.9755 159.305 76.9821 159.092 76.9821H156.3V80.5885H154.002V68.2126H159.092ZM224.961 68.2126L228.585 74.2409L232.242 68.2126H234.505L229.663 76.2204V80.5885H227.365V76.2563L222.504 68.2126H224.961ZM218.227 68.2126L223.812 80.5885H221.408L220.172 77.7244H213.985L212.766 80.5885H210.398L215.965 68.2126H218.227ZM202.957 68.2126C204.277 68.2126 205.449 68.4694 206.474 68.9812C207.499 69.4939 208.295 70.2197 208.86 71.1563C209.426 72.0925 209.708 73.1748 209.708 74.4006C209.708 75.6259 209.426 76.7082 208.86 77.6444C208.295 78.5814 207.499 79.3063 206.474 79.8186C205.449 80.3317 204.277 80.5885 202.957 80.5885H197.548V68.2126H202.957ZM180.848 68.2126V70.1571H176.748V80.5885H174.45V70.1571H170.35V68.2126H180.848ZM130.249 70.0508C129.424 70.0508 128.681 70.2367 128.022 70.6073C127.361 70.9791 126.843 71.498 126.466 72.1638C126.089 72.8296 125.901 73.5759 125.901 74.4006C125.901 75.2252 126.089 75.9706 126.466 76.6369C126.843 77.3032 127.361 77.8216 128.022 78.1921C128.681 78.5644 129.424 78.7494 130.249 78.7494C131.073 78.7494 131.816 78.5644 132.475 78.1921C133.136 77.8216 133.654 77.3032 134.031 76.6369C134.408 75.9706 134.597 75.2252 134.597 74.4006C134.597 73.5759 134.408 72.8296 134.031 72.1638C133.654 71.498 133.136 70.9791 132.475 70.6073C131.816 70.2367 131.073 70.0508 130.249 70.0508ZM188.094 70.0508C187.268 70.0508 186.525 70.2367 185.866 70.6073C185.206 70.9791 184.688 71.498 184.311 72.1638C183.933 72.8296 183.746 73.5759 183.746 74.4006C183.746 75.2252 183.933 75.9706 184.311 76.6369C184.688 77.3032 185.206 77.8216 185.866 78.1921C186.525 78.5644 187.268 78.7494 188.094 78.7494C188.918 78.7494 189.661 78.5644 190.32 78.1921C190.981 77.8216 191.498 77.3032 191.876 76.6369C192.253 75.9706 192.442 75.2252 192.442 74.4006C192.442 73.5759 192.253 72.8296 191.876 72.1638C191.498 71.498 190.981 70.9791 190.32 70.6073C189.661 70.2367 188.918 70.0508 188.094 70.0508ZM202.851 70.1571H199.846V78.6436H202.851C203.758 78.6436 204.557 78.4694 205.245 78.1217C205.935 77.7739 206.465 77.2791 206.837 76.6369C207.207 75.9947 207.393 75.2488 207.393 74.4006C207.393 73.5523 207.207 72.8064 206.837 72.1638C206.465 71.5216 205.935 71.0264 205.245 70.6781C204.557 70.3312 203.758 70.1571 202.851 70.1571ZM217.078 70.5108L214.764 75.9212H219.412L217.078 70.5108ZM158.987 70.1571H156.3V75.09H158.987C159.988 75.09 160.747 74.8743 161.266 74.4443C161.785 74.0143 162.043 73.404 162.043 72.6144C162.043 71.8256 161.785 71.2171 161.266 70.7941C160.747 70.3688 159.988 70.1571 158.987 70.1571Z" fill="white"/>
</svg>
