<svg width="300" height="150" viewBox="0 0 300 150" fill="none" xmlns="http://www.w3.org/2000/svg">
<g clip-path="url(#clip0_801_325)">
<path fill-rule="evenodd" clip-rule="evenodd" d="M149.615 48L158.17 55.5113L155.155 59.1034V59.43L162.861 62.6951L168.222 59.1034L164.871 55.5113V55.1849C168.222 52.8985 170.902 50.6126 174.253 48.6533L172.578 64.3288H126.675L125 48.6533C128.35 50.6126 131.031 52.8985 134.382 55.1849V55.5113L131.031 59.1034L136.392 62.6951L144.098 59.43V59.1034L141.082 55.5113L149.615 48ZM172.38 68.3305L172.046 73.6663H154.989V92.0093H163.35C165.357 92.0093 167.029 90.0082 166.694 88.6744C166.36 86.6733 164.688 85.6728 163.016 84.6723C163.35 84.6723 169.036 80.6702 171.711 78.6696C171.711 79.6696 169.705 94.6775 169.705 95.0109L149.973 102.348H149.638L129.907 95.0109C129.907 94.6775 127.9 79.6696 127.9 78.6696C130.576 80.3368 136.261 84.6723 136.596 84.6723C134.923 85.6728 133.251 86.6733 132.917 88.6744C132.582 90.0082 134.589 92.0093 136.261 92.0093H144.622V73.6663H127.566L127.231 68.3305H172.38Z" fill="white"/>
</g>
<defs>
<clipPath id="clip0_801_325">
<rect width="50" height="54.3478" fill="white" transform="translate(125 48)"/>
</clipPath>
</defs>
</svg>
