<svg width="300" height="150" viewBox="0 0 300 150" fill="none" xmlns="http://www.w3.org/2000/svg">
<g clip-path="url(#clip0_801_326)">
<path d="M195.476 60C188.993 60 183.654 65.2548 183.654 71.8471C183.654 78.3439 188.897 83.6943 195.476 83.6943C201.959 83.6943 207.299 78.4395 207.299 71.8471C207.299 65.2548 201.959 60 195.476 60ZM204.629 65.2548C204.057 65.6369 203.39 66.0191 202.722 66.4013C202.341 65.6369 201.864 64.8726 201.292 64.2038C201.769 63.9172 202.245 63.535 202.627 63.2484C203.485 63.7261 204.152 64.4904 204.629 65.2548ZM199.671 61.3376C200.625 61.7197 201.483 62.1975 202.341 62.8662C201.959 63.2484 201.483 63.535 201.006 63.8217C200.434 63.1529 199.766 62.5796 199.099 62.0064C199.29 61.7197 199.48 61.5287 199.671 61.3376V61.3376ZM200.625 64.0127C199.957 64.3949 199.29 64.586 198.622 64.8726C198.336 64.2038 198.05 63.535 197.669 62.9618C198.05 62.7707 198.432 62.5796 198.718 62.293C199.385 62.7707 200.053 63.3439 200.625 64.0127ZM199.194 61.1465C199.004 61.3376 198.813 61.5287 198.718 61.7197C198.05 61.3376 197.478 60.9554 196.716 60.6688C197.574 60.6688 198.432 60.8599 199.194 61.1465ZM198.336 62.0064C198.05 62.1975 197.764 62.3885 197.478 62.4841C197.097 61.9108 196.716 61.4331 196.334 60.8599C197.002 61.1465 197.669 61.5287 198.336 62.0064V62.0064ZM195.667 60.9554C196.143 61.4331 196.525 62.0064 196.906 62.6752C196.525 62.7707 196.143 62.8662 195.667 62.8662V60.9554ZM195.667 63.3439C196.143 63.3439 196.716 63.2484 197.192 63.0573C197.574 63.6306 197.86 64.2994 198.146 64.9682C197.383 65.1592 196.525 65.2548 195.667 65.3503V63.3439ZM195.19 60.9554V62.8662C194.809 62.8662 194.427 62.7707 193.951 62.6752C194.427 62.1019 194.809 61.5287 195.19 60.9554V60.9554ZM193.569 62.4841C193.283 62.3885 192.902 62.1975 192.711 62.0064C193.379 61.6242 194.046 61.242 194.713 60.9554C194.237 61.4331 193.855 61.9108 193.569 62.4841V62.4841ZM194.237 60.5732C193.569 60.8599 192.902 61.242 192.234 61.6242C192.044 61.4331 191.853 61.242 191.758 61.051C192.52 60.8599 193.379 60.6688 194.237 60.5732ZM202.341 80.828C200.815 79.9682 200.72 78.7261 200.815 78.3439C200.911 77.8662 201.197 78.0573 201.387 78.0573C202.436 78.0573 203.485 77.7707 204.82 76.3376C206.345 74.8089 206.822 71.3694 204.438 69.172C201.959 66.7834 199.29 67.1656 197.574 69.3631C197.192 69.8408 196.334 70.1274 195.667 70.1274C194.523 70.1274 195.285 70.9873 195.285 71.1783C195.285 71.3694 195.095 71.465 194.999 71.465C194.618 71.3694 194.809 71.9427 194.809 72.0382C194.809 72.1338 194.618 72.3248 194.618 72.3248C194.141 72.3248 194.237 72.707 194.332 72.8981C194.332 72.9936 194.332 73.1847 194.141 73.2803C193.951 73.3758 193.855 73.758 193.855 74.0446C193.855 74.5223 194.332 74.9045 195.095 75.4777C195.857 76.051 195.953 76.6242 195.953 77.0064C195.953 77.3885 196.048 78.0573 196.143 78.4395C196.334 78.9172 196.334 79.8726 195.285 79.8726C193.951 79.9682 191.662 80.9236 191.472 81.0191C190.709 81.3057 189.755 81.4013 188.993 81.2102C188.611 80.9236 188.23 80.6369 187.849 80.2548C187.658 79.7771 187.944 79.2038 188.23 78.8217C188.707 79.2994 189.279 79.2038 189.66 79.2038C190.042 79.2038 191.758 78.9172 192.044 78.8217C192.33 78.7261 192.425 78.7261 192.52 78.8217C193.188 79.1083 194.141 79.1083 194.523 77.8662C194.904 76.5287 194.046 76.9108 193.855 77.0064C193.76 77.1019 193.569 77.0064 193.665 76.9108C193.855 76.6242 193.569 76.6242 193.474 76.6242C193.092 76.6242 192.616 77.0064 192.52 77.1019C192.33 77.1975 192.234 77.1975 192.139 77.1975C191.662 76.9108 190.232 77.293 189.755 76.5287C189.755 76.3376 189.374 73.1847 189.183 72.6115C189.183 72.5159 189.088 72.3248 189.279 72.1338C189.66 71.5605 190.614 72.1338 191.186 72.1338C191.853 72.1338 191.948 71.8471 192.139 71.6561C192.33 71.465 192.425 71.5605 192.52 71.465C192.616 71.3694 192.52 71.2739 192.52 71.1783C192.52 71.0828 192.616 71.1783 192.711 71.0828C192.806 70.9873 192.711 70.7962 192.711 70.7006C192.902 70.414 193.283 70.6051 193.092 70.0318C192.997 69.6497 193.188 69.2675 193.379 69.0764C193.665 68.6943 194.904 66.9745 192.806 65.1592C190.804 63.4395 188.707 63.6306 187.372 65.0637C186.037 66.4968 186.705 68.5987 186.8 69.172C186.895 69.7452 186.514 70.2229 186.037 70.414C185.656 70.6051 184.798 71.1783 184.226 71.6561C184.321 67.0701 187.086 63.0573 191.281 61.4331C191.472 61.6242 191.662 61.9108 191.853 62.1019C191.376 62.4841 190.328 63.3439 190.328 63.3439C190.328 63.3439 190.423 63.3439 190.614 63.4395C190.709 63.4395 190.9 63.535 190.9 63.535C190.9 63.535 191.758 62.7707 192.234 62.4841C192.52 62.7707 192.902 62.9618 193.283 63.1529C193.092 63.535 192.52 64.4904 192.52 64.4904C192.52 64.4904 192.616 64.586 192.711 64.586C192.806 64.6815 192.902 64.6815 192.902 64.6815C192.902 64.6815 193.474 63.6306 193.665 63.2484C194.141 63.4395 194.618 63.535 195.095 63.535V65.4459C194.809 65.4459 194.141 65.4459 193.855 65.3503H193.665L193.76 65.5414C193.855 65.6369 193.855 65.7325 193.951 65.828H195.095V69.3631H195.571V68.5032C196.334 68.5032 196.906 68.4076 197.574 68.3121L198.241 67.7389H197.86C197.097 67.8344 196.429 67.9299 195.857 67.9299H195.571V65.7325C196.429 65.7325 197.383 65.6369 198.241 65.3503L198.908 67.3567L199.385 67.1656L198.718 65.1592C199.48 64.9682 200.148 64.586 200.815 64.2994C201.387 64.9682 201.864 65.7325 202.245 66.4968C201.864 66.6879 201.292 66.879 201.292 66.879C201.769 66.9745 202.15 67.0701 202.15 67.0701C202.15 67.0701 202.341 66.9745 202.436 66.9745C202.436 67.0701 202.531 67.2611 202.531 67.2611L203.199 67.5478L203.103 67.3567C203.103 67.3567 202.913 66.879 202.817 66.7834C203.485 66.4968 204.152 66.1146 204.82 65.6369C206.059 67.4522 206.631 69.6497 206.631 71.8471C206.822 75.4777 205.01 78.7261 202.341 80.828ZM182.605 63.1529L182.414 63.3439C181.747 63.9172 180.126 65.5414 180.412 67.3567V67.4522L180.507 67.8344L180.698 67.6433C181.651 66.7834 182.414 65.2548 182.7 63.535L182.795 63.0573L182.605 63.1529ZM179.363 66.2102L179.268 66.4013C179.172 66.6879 178.982 67.3567 178.886 68.121C178.696 69.2675 178.791 70.9873 179.744 72.2293L179.84 72.4204L179.935 72.6115L180.126 71.8471C180.317 70.5096 180.031 67.7389 179.554 66.4968L179.363 66.1146V66.2102ZM178.219 70.9873V71.1783C178.124 72.3248 178.219 75.2866 180.603 76.9108L180.889 77.1019V76.7197C180.889 75.5732 179.554 72.2293 178.6 71.0828L178.314 70.7006L178.219 70.9873ZM178.6 76.242V76.4331C178.982 78.1529 180.507 80.828 182.986 81.6879L183.368 81.7834L183.272 81.4013C182.795 80.1592 180.412 77.1975 178.886 76.242L178.6 76.051V76.242ZM183.654 65.7325L183.368 65.828C181.556 66.9745 180.698 68.3121 180.698 70.0318V70.414L180.984 70.2229C181.937 69.3631 183.272 67.2611 183.558 66.1146L183.654 65.6369V65.7325ZM182.509 69.3631L182.414 69.5541C181.937 70.0318 180.412 71.6561 180.507 73.6624C180.507 73.949 180.603 74.3312 180.698 74.6178L180.793 74.9045L180.984 74.6178C181.747 73.5669 182.7 70.8917 182.605 69.6497V69.2675L182.509 69.3631ZM182.605 72.8981L182.509 73.0892C181.747 74.2357 181.365 75.3822 181.365 76.5287C181.365 77.293 181.651 78.0573 182.128 78.8217L182.319 79.1083L182.414 78.8217C182.7 78.1529 182.986 76.1465 182.986 74.5223C182.986 73.949 182.891 73.4713 182.795 73.1847L182.7 72.8025L182.605 72.8981ZM183.463 76.6242L183.368 76.8153C183.177 77.5796 182.986 78.2484 183.081 79.0127C183.081 80.5414 183.844 81.7834 185.179 82.6433L185.37 82.7389L185.465 82.4522V82.1656C185.465 80.9236 184.512 77.6752 183.749 76.7197L183.558 76.4331L183.463 76.6242ZM180.889 81.5924L180.984 81.7834C181.937 83.4076 183.654 85.6051 186.8 85.0318H187.086L186.895 84.8408C186.323 83.9809 182.509 81.7834 181.175 81.5924L180.793 81.4968L180.889 81.5924ZM185.56 85.7962L185.084 85.8917L185.56 86.0828C187.563 86.9427 190.042 87.1338 191.567 86.6561C192.139 86.465 192.425 86.1783 192.806 85.7962C195.381 86.0828 197.764 88.1847 199.194 89.9045L199.29 90H199.385C199.576 89.9045 199.766 89.7134 199.862 89.6178L199.957 89.5223L199.862 89.4268C198.432 87.5159 196.143 86.3694 196.048 86.2739C193.951 85.3185 190.328 84.5541 185.56 85.7962" fill="white"/>
<path d="M185.656 80.4463V80.6374C185.942 82.5483 186.704 85.0323 189.946 84.7457H190.137L190.041 84.5546C189.851 83.6948 186.895 81.2107 185.846 80.5419L185.56 80.3508L185.656 80.4463ZM208.157 62.9623L208.252 63.44C208.538 65.1597 209.301 66.6884 210.254 67.5483L210.445 67.7393L210.54 67.3572V67.2616C210.826 65.4463 209.205 63.8221 208.538 63.2489L208.347 63.0578L208.157 62.9623ZM211.494 66.0196L211.303 66.4018C210.826 67.6438 210.636 70.4145 210.731 71.7521L210.922 72.5164L211.017 72.4209L211.112 72.2298C212.161 70.9877 212.161 69.3635 211.97 68.1215C211.875 67.2616 211.684 66.6884 211.589 66.4018L211.494 66.2107V66.0196ZM212.733 70.7967L212.447 71.1788C211.494 72.4209 210.159 75.6693 210.159 76.8158V77.1979L210.445 77.0069C212.828 75.4782 212.924 72.5164 212.828 71.2744V71.0833L212.733 70.7967ZM212.352 76.0514L211.97 76.2425C210.445 77.1979 208.061 80.1597 207.585 81.4018L207.489 81.7839L207.871 81.6884C210.35 80.9241 211.97 78.1534 212.256 76.4336V76.2425L212.352 76.0514ZM207.299 65.5419L207.394 66.0196C207.775 67.2616 208.919 69.3635 209.968 70.2234L210.254 70.4145V70.0323C210.35 68.3126 209.491 66.975 207.68 65.8285L207.489 65.733L207.299 65.5419ZM208.347 69.268V69.6502C208.252 70.8922 209.301 73.6629 209.968 74.6183L210.159 74.9049L210.254 74.6183C210.35 74.2362 210.445 73.9495 210.445 73.6629C210.54 71.6565 209.015 70.0323 208.538 69.5546L208.443 69.4591L208.347 69.268ZM208.252 72.7075L208.157 73.0897C208.061 73.3763 207.966 73.854 207.966 74.4272C207.966 76.0514 208.157 78.0578 208.538 78.7266L208.633 79.0132L208.824 78.7266C209.301 78.0578 209.587 77.2935 209.587 76.4336C209.587 75.3827 209.205 74.1406 208.443 72.9941L208.347 72.803L208.252 72.7075ZM207.394 76.4336L207.203 76.7202C206.44 77.6756 205.487 80.9241 205.487 82.1661V82.4527L205.582 82.7393L205.773 82.6438C207.108 81.7839 207.775 80.5419 207.871 79.0132C207.871 78.3444 207.775 77.5801 207.585 76.8158L207.489 76.6247L207.394 76.4336ZM210.159 81.4018L209.777 81.4973C208.443 81.6884 204.629 83.8858 204.057 84.7457L203.866 84.9368H204.152C207.299 85.51 209.015 83.3126 209.968 81.6884L210.063 81.4973L210.159 81.4018ZM194.999 86.2744C194.904 86.2744 192.616 87.5164 191.186 89.4272L191.09 89.5228L191.186 89.6183C191.281 89.7139 191.567 89.9049 191.662 90.0005H191.758L191.853 89.9049C193.283 88.1852 195.667 85.9878 198.241 85.7967C198.622 86.1788 199.004 86.4655 199.48 86.6565C200.911 87.1342 203.485 86.9432 205.487 86.0833L205.964 85.8922L205.487 85.7967C200.625 84.5546 197.002 85.319 194.999 86.2744V86.2744ZM205.296 80.2553L205.01 80.4463C203.962 81.1151 201.101 83.5992 200.815 84.4591L200.72 84.6502H200.911C204.057 84.9368 204.82 82.4527 205.201 80.5419V80.3508L205.296 80.2553ZM124.827 61.147H128.831V64.7776H124.827V61.147ZM125.208 68.9814H128.545V86.7521H125.208V68.9814ZM99.9425 68.9814H103.28V86.7521H100.038V84.1725H99.9425C98.6077 86.3699 96.3195 87.3253 93.8406 87.3253C90.1222 87.3253 88.0247 84.4591 88.0247 80.9241V68.9814H91.3617V79.4909C91.3617 82.5483 92.0291 84.8413 95.2707 84.8413C96.6055 84.8413 98.5124 84.1725 99.1798 82.2616C99.8472 80.6374 99.8472 78.5355 99.8472 78.0578V68.9814H99.9425ZM109.954 71.561C111.193 69.3635 113.577 68.4081 115.388 68.4081C116.628 68.4081 122.062 68.6948 122.062 74.4272V86.6565H118.725V75.4782C118.725 72.5164 117.486 70.9877 114.625 70.9877C114.625 70.9877 112.814 70.8922 111.384 72.3253C110.907 72.803 109.954 73.5674 109.954 77.1024V86.7521H106.617V68.9814H109.954V71.561ZM142.561 74.6183C142.37 72.4209 141.321 70.8922 138.938 70.8922C135.791 70.8922 134.552 73.6629 134.552 77.7712C134.552 81.8795 135.791 84.6502 138.938 84.6502C141.131 84.6502 142.465 83.2171 142.656 80.6374H145.993C145.707 84.6502 142.751 87.0387 138.842 87.0387C133.217 87.0387 130.929 83.026 130.929 77.8667C130.929 72.7075 133.503 68.4081 139.128 68.4081C142.847 68.4081 145.612 70.7967 145.802 74.6183H142.561ZM150.951 78.44C150.665 81.4973 152 84.7457 155.337 84.7457C157.911 84.7457 159.246 83.6948 159.627 81.1151H163.155C162.583 85.1279 159.532 87.1342 155.337 87.1342C149.711 87.1342 147.423 83.1215 147.423 77.9623C147.423 72.803 149.998 68.5037 155.623 68.5037C160.867 68.5992 163.345 71.9432 163.345 76.8158V78.44H150.951ZM159.913 76.147C160.008 73.1852 158.674 70.8922 155.432 70.8922C152.667 70.8922 151.046 73.2807 151.046 76.147H159.913ZM167.159 86.561V71.2744H164.108V68.9814H167.159V65.1597C167.255 61.3381 170.21 60.2871 172.689 60.2871C173.452 60.2871 174.31 60.4782 175.073 60.6693V63.44C174.501 63.44 173.929 63.3444 173.356 63.3444C171.45 63.3444 170.401 63.8221 170.496 65.733V68.9814H174.596V71.2744H170.496V86.561H167.159Z" fill="white"/>
</g>
<defs>
<clipPath id="clip0_801_326">
<rect width="124.948" height="30" fill="white" transform="translate(88 60)"/>
</clipPath>
</defs>
</svg>
