<svg width="300" height="150" viewBox="0 0 300 150" fill="none" xmlns="http://www.w3.org/2000/svg">
<g clip-path="url(#clip0_801_333)">
<path fill-rule="evenodd" clip-rule="evenodd" d="M169.341 68.8476C171.084 68.8476 172.746 69.4175 173.972 70.5575L172.12 72.566C171.438 71.9689 170.376 71.4802 169.341 71.4802C168.387 71.4802 167.679 71.9961 167.679 72.8374C167.679 73.7874 168.85 74.276 170.104 74.7917C171.902 75.4974 174.19 76.4473 174.19 79.0259C174.19 82.1201 171.629 83.4773 168.905 83.4773C166.834 83.4773 164.955 82.663 163.593 81.17L165.608 79.2702C166.616 80.2745 167.57 80.8444 168.823 80.8444C169.831 80.8444 170.921 80.3559 170.921 79.243C170.921 78.3411 169.76 77.8092 168.596 77.327L168.306 77.2073C166.644 76.5288 164.519 75.5788 164.519 73.0817C164.519 70.2317 166.862 68.8476 169.341 68.8476ZM192.663 68.8476C196.858 68.8476 199.937 72.0774 199.937 76.1488C199.937 80.2472 196.858 83.4773 192.663 83.4773C188.468 83.4773 185.389 80.2472 185.389 76.1488C185.389 72.0774 188.468 68.8476 192.663 68.8476ZM203.559 68.2491C204.652 68.2491 205.603 68.8511 206.099 69.7398C206.938 69.2492 207.914 68.9665 208.956 68.9665C212.08 68.9665 214.622 71.4993 214.622 74.6122V83.1516H211.449V74.6122C211.449 73.2425 210.33 72.1283 208.956 72.1283C207.59 72.1283 206.479 73.2278 206.464 74.5847V74.9454H206.462V83.1516H203.289V74.9454H203.288V68.5187C203.288 68.3698 203.409 68.2491 203.558 68.2491H203.559ZM139.886 64.1518L146.678 83.1515H143.237L136.018 64.1518H139.886ZM160.13 69.1732V83.1515H156.834V69.1732H160.13ZM181.512 69.1732V83.1515H178.216V69.1732H181.512ZM192.663 71.7246C190.374 71.7246 188.74 73.7059 188.74 76.1488C188.74 78.6188 190.374 80.6001 192.663 80.6001C194.951 80.6001 196.586 78.6188 196.586 76.1488C196.586 73.7059 194.951 71.7246 192.663 71.7246ZM153.644 64.1519L148.639 77.6962C148.588 77.835 148.391 77.8347 148.341 77.6959L147.416 75.1526C146.921 73.7927 146.922 72.3029 147.419 70.9438L149.939 64.1519H153.644ZM179.864 63.8262C180.735 63.8262 181.44 64.5292 181.44 65.3963C181.44 66.2636 180.735 66.9666 179.864 66.9666C178.994 66.9666 178.288 66.2636 178.288 65.3963C178.288 64.5292 178.994 63.8262 179.864 63.8262ZM158.482 63.8262C159.352 63.8262 160.058 64.5292 160.058 65.3963C160.058 66.2636 159.352 66.9666 158.482 66.9666C157.611 66.9666 156.906 66.2636 156.906 65.3963C156.906 64.5292 157.611 63.8262 158.482 63.8262Z" fill="white"/>
<path fill-rule="evenodd" clip-rule="evenodd" d="M109.985 93.4561L95.9672 79.5224C94.2229 77.7885 91.857 76.8145 89.3902 76.8145H85.7118C85.0789 76.8145 84.762 77.5749 85.2095 78.0197L100.841 93.558C103.364 96.0658 107.454 96.0658 109.977 93.558L109.985 93.5505C110.011 93.5245 110.011 93.4821 109.985 93.4561Z" fill="white"/>
<path fill-rule="evenodd" clip-rule="evenodd" d="M108.359 86.0217L114.848 79.5389C116.594 77.795 118.967 76.8145 121.442 76.8145H125.11C125.743 76.8145 126.06 77.5739 125.614 78.0189L117.503 86.1083C114.981 88.6233 110.885 88.6266 108.36 86.116C108.333 86.0899 108.333 86.0478 108.359 86.0217Z" fill="white"/>
<path fill-rule="evenodd" clip-rule="evenodd" d="M100.834 55.9828L114.851 69.9165C116.595 71.6502 118.961 72.6244 121.428 72.6244H125.106C125.739 72.6244 126.056 71.8638 125.609 71.419L109.977 55.8808C107.454 53.3731 103.364 53.3731 100.841 55.8808L100.834 55.8883C100.807 55.9144 100.807 55.9567 100.834 55.9828Z" fill="white"/>
<path fill-rule="evenodd" clip-rule="evenodd" d="M102.459 63.4164L95.9699 69.8992C94.2242 71.6431 91.8514 72.6236 89.3764 72.6236H85.8695C85.1773 72.6236 84.8302 71.7925 85.3187 71.3053L93.3151 63.3298C95.8365 60.815 99.9328 60.8115 102.458 63.3221C102.485 63.3482 102.485 63.3903 102.459 63.4164Z" fill="white"/>
<path fill-rule="evenodd" clip-rule="evenodd" d="M109.407 74.837C109.407 77.0316 107.617 78.8106 105.409 78.8106C103.201 78.8106 101.412 77.0316 101.412 74.837C101.412 72.6423 103.201 70.8633 105.409 70.8633C107.617 70.8633 109.407 72.6423 109.407 74.837Z" fill="white"/>
</g>
<defs>
<clipPath id="clip0_801_333">
<rect width="130" height="41.5698" fill="white" transform="translate(85 54)"/>
</clipPath>
</defs>
</svg>
