<?xml version="1.0" standalone="no"?>
<!DOCTYPE svg PUBLIC "-//W3C//DTD SVG 20010904//EN"
 "http://www.w3.org/TR/2001/REC-SVG-20010904/DTD/svg10.dtd">
<svg version="1.0"
    xmlns="http://www.w3.org/2000/svg" width="500.000000pt" height="500.000000pt" viewBox="0 0 500.000000 500.000000" preserveAspectRatio="xMidYMid meet">

    <g transform="translate(0.000000,500.000000) scale(0.100000,-0.100000)" fill="#ffffff" stroke="none">
        <path d="M1200 3839 l0 -810 25 3 c22 3 56 56 244 378 l219 375 254 2 253 3
415 -350 c228 -193 427 -364 442 -380 19 -21 37 -30 58 -30 l30 0 0 783 c0
430 3 792 6 805 6 19 3 22 -24 22 -25 0 -79 -43 -329 -260 -265 -232 -299
-258 -311 -243 -7 9 -78 129 -158 265 -121 205 -150 248 -168 248 -18 0 -47
-43 -167 -250 l-146 -249 -296 249 c-218 184 -303 250 -321 250 l-26 0 0 -811z
m352 492 l265 -224 -64 -111 c-36 -61 -71 -121 -79 -133 -14 -23 -18 -23 -219
-23 l-205 0 0 371 c0 358 1 370 19 357 10 -7 137 -114 283 -237z m762 -8 c75
-128 136 -234 136 -237 0 -3 -143 -130 -242 -214 -16 -13 -31 -3 -164 109 -80
67 -148 128 -151 135 -2 7 55 115 128 239 107 184 134 224 144 213 7 -7 74
-117 149 -245z m776 -118 l0 -365 -217 0 -218 0 -68 116 c-43 73 -65 120 -59
126 15 15 557 487 560 488 1 0 2 -164 2 -365z m-1097 -245 c69 -58 126 -108
126 -112 1 -5 -87 -8 -195 -8 -154 0 -195 3 -192 13 6 24 122 217 129 215 3
-2 63 -50 132 -108z m543 -16 c31 -52 54 -97 51 -100 -2 -2 -78 -3 -167 -2
l-164 3 110 97 c60 53 110 97 111 98 1 0 28 -43 59 -96z m-909 -161 c-18 -33
-371 -639 -373 -642 -2 -2 -4 143 -4 322 l0 327 191 0 c104 0 188 -3 186 -7z
m1168 -280 c93 -159 171 -292 173 -297 3 -6 -53 39 -124 100 -71 60 -227 192
-347 292 -119 101 -217 186 -217 188 0 2 78 4 173 4 l174 0 168 -287z m295
-55 c0 -188 -2 -339 -4 -337 -7 7 -396 670 -396 674 0 3 90 5 200 5 l200 0 0
-342z"/>
    </g>
</svg>
