<svg xmlns="http://www.w3.org/2000/svg"
    xmlns:xlink="http://www.w3.org/1999/xlink" width="500" zoomAndPan="magnify" viewBox="0 0 375 374.999991" height="500" preserveAspectRatio="xMidYMid meet" version="1.0">
    <defs>
        <g/>
    </defs>
    <g fill="#ffffff" fill-opacity="1">
        <g transform="translate(43.95127, 193.479045)">
            <g>
                <path d="M 6.421875 -28.757812 C 7.757812 -29.558594 9.230469 -30.363281 10.566406 -31.164062 C 18.859375 -35.980469 27.820312 -37.988281 37.453125 -37.316406 C 41.332031 -37.050781 45.210938 -36.515625 49.089844 -35.445312 C 58.183594 -32.902344 66.609375 -28.355469 75.4375 -25.011719 C 77.175781 -24.34375 76.242188 -23.539062 75.707031 -22.738281 C 68.617188 -13.375 61.394531 -4.144531 52.96875 4.011719 C 48.285156 8.558594 43.46875 12.972656 37.183594 15.25 C 28.355469 18.59375 24.210938 18.191406 19.527344 7.492188 C 16.851562 1.738281 16.71875 -4.414062 17.523438 -10.699219 C 17.65625 -11.769531 17.523438 -12.574219 16.316406 -12.972656 C 15.25 -13.375 14.179688 -13.242188 13.507812 -12.039062 C 12.972656 -10.96875 12.574219 -9.898438 12.4375 -8.828125 C 11.769531 -2.808594 12.4375 3.078125 15.113281 8.695312 C 20.195312 19.128906 30.363281 22.738281 40.929688 17.789062 C 46.011719 15.382812 50.160156 12.039062 54.171875 8.160156 C 63.398438 -0.800781 71.023438 -11.101562 78.78125 -21.265625 C 79.851562 -22.605469 80.65625 -22.871094 82.394531 -22.335938 C 94.832031 -18.191406 107.136719 -13.777344 120.378906 -12.574219 C 122.117188 -12.4375 121.851562 -11.636719 121.449219 -10.433594 C 119.308594 -3.746094 117.167969 2.808594 115.296875 9.628906 C 113.824219 14.578125 112.488281 19.660156 112.621094 25.011719 C 112.757812 27.152344 113.691406 28.890625 115.566406 29.960938 C 117.839844 31.296875 119.175781 30.496094 119.042969 27.820312 C 118.910156 25.144531 119.445312 22.472656 119.980469 19.796875 C 121.984375 10.433594 125.195312 1.335938 128.273438 -7.757812 C 129.609375 -11.902344 129.609375 -11.902344 134.023438 -12.171875 C 134.960938 -12.171875 136.03125 -12.171875 136.964844 -12.304688 C 148.199219 -12.707031 158.769531 -15.515625 168.933594 -19.929688 C 169.46875 -20.0625 170.269531 -20.0625 170.136719 -21 C 169.871094 -21.667969 169.335938 -21.9375 168.800781 -22.070312 C 168.128906 -22.070312 167.59375 -21.9375 167.0625 -21.800781 C 164.921875 -21.132812 162.914062 -20.597656 160.773438 -19.929688 C 151.8125 -17.253906 142.851562 -14.980469 133.355469 -15.113281 C 130.679688 -15.113281 130.679688 -15.113281 131.617188 -17.65625 C 139.640625 -39.992188 148.066406 -62.328125 156.628906 -84.535156 C 163.714844 -102.859375 171.472656 -121.046875 177.359375 -140.042969 C 178.832031 -145.125 180.300781 -150.207031 180.167969 -155.558594 C 180.167969 -157.964844 179.5 -159.972656 177.09375 -161.042969 C 174.683594 -162.113281 172.8125 -161.175781 171.339844 -159.4375 C 169.066406 -157.164062 166.792969 -154.753906 164.921875 -152.214844 C 146.195312 -127.738281 128.003906 -102.722656 111.6875 -76.375 C 101.789062 -60.191406 91.355469 -44.273438 80.121094 -28.890625 C 78.914062 -27.019531 77.84375 -26.75 75.839844 -27.6875 C 71.558594 -29.695312 67.277344 -31.566406 63 -33.4375 C 55.105469 -36.78125 47.347656 -40.394531 38.789062 -41.597656 C 27.417969 -43.070312 16.585938 -41.597656 7.089844 -34.507812 C 6.019531 -33.707031 4.816406 -32.902344 4.011719 -31.699219 C 3.34375 -30.898438 3.078125 -30.09375 3.878906 -29.292969 C 4.679688 -28.488281 5.484375 -28.222656 6.421875 -28.757812 Z M 84.398438 -28.890625 C 98.308594 -48.152344 110.617188 -68.484375 123.324219 -88.414062 C 137.367188 -110.480469 152.75 -131.480469 168.933594 -151.8125 C 170.804688 -154.085938 172.679688 -156.492188 175.621094 -158.5 C 175.753906 -153.953125 174.820312 -150.207031 173.75 -146.328125 C 168.53125 -129.609375 161.976562 -113.425781 155.289062 -97.105469 C 144.589844 -70.621094 133.21875 -44.273438 123.859375 -17.253906 C 123.324219 -15.78125 122.519531 -15.648438 121.183594 -15.78125 C 109.011719 -16.585938 97.375 -20.0625 86.003906 -23.941406 C 81.992188 -25.28125 81.859375 -25.28125 84.398438 -28.890625 Z M 84.398438 -28.890625 "/>
            </g>
        </g>
    </g>
    <g fill="#ffffff" fill-opacity="1">
        <g transform="translate(68.543233, 245.147694)">
            <g>
                <path d="M 11.214844 -6.78125 L 6.730469 -6.78125 L 8.972656 -13.09375 Z M 17.84375 0 L 10.644531 -17.738281 L 7.328125 -17.738281 L 0.128906 0 L 4.332031 0 L 5.609375 -3.574219 L 12.363281 -3.574219 L 13.640625 0 Z M 17.84375 0 "/>
            </g>
        </g>
    </g>
    <g fill="#ffffff" fill-opacity="1">
        <g transform="translate(96.290491, 245.147694)">
            <g>
                <path d="M 23.683594 0 L 20.242188 -17.738281 L 15.597656 -17.738281 L 11.921875 -5.296875 L 8.214844 -17.738281 L 3.574219 -17.738281 L 0.128906 0 L 4.433594 0 L 6.519531 -12.234375 L 9.992188 0 L 13.824219 0 L 17.292969 -12.234375 L 19.382812 0 Z M 23.683594 0 "/>
            </g>
        </g>
    </g>
    <g fill="#ffffff" fill-opacity="1">
        <g transform="translate(129.878389, 245.147694)">
            <g>
                <path d="M 11.214844 -6.78125 L 6.730469 -6.78125 L 8.972656 -13.09375 Z M 17.84375 0 L 10.644531 -17.738281 L 7.328125 -17.738281 L 0.128906 0 L 4.332031 0 L 5.609375 -3.574219 L 12.363281 -3.574219 L 13.640625 0 Z M 17.84375 0 "/>
            </g>
        </g>
    </g>
    <g fill="#ffffff" fill-opacity="1">
        <g transform="translate(157.625646, 245.147694)">
            <g>
                <path d="M 15.496094 0 L 15.496094 -17.738281 L 11.582031 -17.738281 L 11.582031 -6.679688 L 5.476562 -17.738281 L 1.566406 -17.738281 L 1.566406 0 L 5.476562 0 L 5.476562 -11.058594 L 11.582031 0 Z M 15.496094 0 "/>
            </g>
        </g>
    </g>
    <g fill="#ffffff" fill-opacity="1">
        <g transform="translate(187.401128, 261.874216)">
            <g>
                <path d="M 8.925781 -35.527344 C 11.578125 -48.253906 14.9375 -60.804688 19.796875 -72.824219 C 21.917969 -77.949219 24.039062 -83.074219 26.246094 -88.113281 C 26.777344 -89.347656 26.425781 -89.792969 25.363281 -90.144531 C 23.773438 -90.761719 23.15625 -89.703125 22.535156 -88.640625 C 20.328125 -84.578125 18.472656 -80.335938 16.613281 -76.09375 C 10.605469 -62.039062 6.804688 -47.371094 3.886719 -32.433594 C 1.855469 -22.269531 0.707031 -11.929688 -0.617188 -1.589844 C -0.707031 -0.617188 -0.707031 0.175781 0.265625 0.707031 C 2.03125 1.679688 3.09375 1.238281 3.445312 -0.707031 C 5.039062 -9.632812 7.511719 -18.292969 10.515625 -26.867188 C 14.050781 -36.851562 18.648438 -46.398438 23.683594 -55.765625 C 31.992188 -71.144531 41.539062 -85.8125 53.554688 -98.628906 C 60.625 -106.230469 68.316406 -113.121094 77.683594 -117.984375 C 81.308594 -119.929688 85.019531 -121.429688 89.171875 -121.871094 C 93.503906 -122.226562 95.535156 -120.8125 96.683594 -116.65625 C 97.570312 -113.386719 97.390625 -110.03125 96.949219 -106.671875 C 95.625 -96.863281 92.175781 -87.582031 88.289062 -78.480469 C 82.367188 -64.515625 75.296875 -51.082031 68.757812 -37.382812 C 63.898438 -27.132812 59.210938 -16.792969 56.382812 -5.746094 C 55.675781 -3.09375 55.324219 -0.441406 54.96875 2.296875 C 54.792969 3.179688 55.234375 3.886719 56.121094 4.242188 C 57.003906 4.59375 57.710938 4.683594 58.769531 4.066406 C 60.097656 3.269531 60.804688 1.945312 61.777344 0.796875 C 65.839844 -3.976562 70.523438 -8.128906 75.738281 -11.753906 C 79.449219 -14.316406 83.25 -16.878906 87.582031 -18.558594 C 89.878906 -19.355469 90.320312 -19.179688 90.761719 -16.703125 C 91.207031 -14.316406 91.292969 -11.929688 91.46875 -9.542969 C 92 -2.296875 97.214844 2.03125 104.460938 1.148438 C 108.351562 0.707031 112.152344 -0.351562 115.863281 -1.765625 C 124.523438 -5.039062 132.566406 -9.542969 140.695312 -13.785156 C 141.492188 -14.230469 142.199219 -14.757812 142.996094 -15.199219 C 143.703125 -15.644531 143.4375 -15.996094 142.816406 -16.171875 C 142.289062 -16.4375 141.667969 -16.351562 141.136719 -16.171875 C 139.902344 -15.644531 138.574219 -15.199219 137.425781 -14.582031 C 132.035156 -11.578125 126.644531 -8.660156 120.988281 -6.097656 C 115.507812 -3.535156 109.765625 -1.503906 103.667969 -0.796875 C 100.394531 -0.441406 98.71875 -1.503906 97.570312 -4.59375 C 97.390625 -5.300781 97.125 -6.097656 97.039062 -6.894531 C 96.683594 -9.722656 96.507812 -12.550781 96.15625 -15.378906 C 95.710938 -18.914062 93.855469 -20.59375 90.410156 -21.210938 C 87.492188 -21.652344 84.929688 -20.855469 82.457031 -19.53125 C 75.652344 -15.90625 69.289062 -11.84375 63.453125 -6.714844 C 63.101562 -6.363281 62.835938 -5.921875 62.039062 -5.832031 C 63.542969 -10.695312 65.132812 -15.289062 67.078125 -19.886719 C 72.292969 -32.789062 78.566406 -45.160156 84.753906 -57.621094 C 89.96875 -68.140625 95.003906 -78.742188 98.628906 -89.96875 C 100.839844 -96.683594 102.339844 -103.578125 102.339844 -110.648438 C 102.429688 -119.132812 97.039062 -124.347656 88.554688 -124.167969 C 87.050781 -124.167969 85.460938 -123.992188 84.046875 -123.640625 C 79.449219 -122.492188 75.207031 -120.457031 71.230469 -117.984375 C 61.777344 -112.238281 53.910156 -104.726562 46.839844 -96.417969 C 31.992188 -79.007812 20.679688 -59.390625 11.402344 -38.621094 C 10.339844 -36.144531 9.28125 -33.671875 8.128906 -30.933594 C 8.042969 -31.285156 8.042969 -31.460938 8.042969 -31.550781 C 8.308594 -32.875 8.574219 -34.203125 8.925781 -35.527344 Z M 8.925781 -35.527344 "/>
            </g>
        </g>
    </g>
    <g fill="#ffffff" fill-opacity="1">
        <g transform="translate(184.419924, 287.737188)">
            <g>
                <path d="M 23.683594 0 L 20.242188 -17.738281 L 15.597656 -17.738281 L 11.921875 -5.296875 L 8.214844 -17.738281 L 3.574219 -17.738281 L 0.128906 0 L 4.433594 0 L 6.519531 -12.234375 L 9.992188 0 L 13.824219 0 L 17.292969 -12.234375 L 19.382812 0 Z M 23.683594 0 "/>
            </g>
        </g>
    </g>
    <g fill="#ffffff" fill-opacity="1">
        <g transform="translate(218.007822, 287.737188)">
            <g>
                <path d="M 11.84375 -3.546875 L 5.476562 -3.546875 L 5.476562 -7.121094 L 11.582031 -7.121094 L 11.582031 -10.667969 L 5.476562 -10.667969 L 5.476562 -14.191406 L 11.84375 -14.191406 L 11.84375 -17.738281 L 1.566406 -17.738281 L 1.566406 0 L 11.84375 0 Z M 11.84375 -3.546875 "/>
            </g>
        </g>
    </g>
    <g fill="#ffffff" fill-opacity="1">
        <g transform="translate(241.19208, 287.737188)">
            <g>
                <path d="M 11.320312 -17.738281 L 11.320312 -10.667969 L 5.476562 -10.667969 L 5.476562 -17.738281 L 1.566406 -17.738281 L 1.566406 0 L 5.476562 0 L 5.476562 -7.121094 L 11.320312 -7.121094 L 11.320312 0 L 15.496094 0 L 15.496094 -17.738281 Z M 11.320312 -17.738281 "/>
            </g>
        </g>
    </g>
    <g fill="#ffffff" fill-opacity="1">
        <g transform="translate(268.02674, 287.737188)">
            <g>
                <path d="M 9.105469 -14.191406 L 14.164062 -14.191406 L 14.164062 -17.738281 L 0.128906 -17.738281 L 0.128906 -14.191406 L 5.191406 -14.191406 L 5.191406 0 L 9.105469 0 Z M 9.105469 -14.191406 "/>
            </g>
        </g>
    </g>
    <g fill="#ffffff" fill-opacity="1">
        <g transform="translate(292.097525, 287.737188)">
            <g>
                <path d="M 11.214844 -6.78125 L 6.730469 -6.78125 L 8.972656 -13.09375 Z M 17.84375 0 L 10.644531 -17.738281 L 7.328125 -17.738281 L 0.128906 0 L 4.332031 0 L 5.609375 -3.574219 L 12.363281 -3.574219 L 13.640625 0 Z M 17.84375 0 "/>
            </g>
        </g>
    </g>
</svg>