<?xml version="1.0" standalone="no"?>
<!DOCTYPE svg PUBLIC "-//W3C//DTD SVG 20010904//EN"
 "http://www.w3.org/TR/2001/REC-SVG-20010904/DTD/svg10.dtd">
<svg version="1.0" xmlns="http://www.w3.org/2000/svg"
 width="800" height="800" viewBox="0 0 421.000000 421.000000"
 preserveAspectRatio="xMidYMid meet">

<g transform="translate(0.000000,421.000000) scale(0.100000,-0.100000)"
fill="#000000" stroke="none">
<path d="M2359 3917 c-44 -23 -132 -75 -198 -117 -27 -17 -43 -20 -70 -15 -61
11 -144 7 -209 -9 -95 -25 -295 -113 -346 -153 -45 -35 -86 -101 -86 -140 0
-11 -9 -31 -19 -45 -21 -26 -45 -83 -56 -133 -4 -20 1 -52 16 -97 23 -66 23
-69 6 -101 -44 -84 -61 -199 -38 -260 7 -17 5 -39 -3 -68 -7 -24 -16 -116 -20
-204 -13 -282 -15 -309 -27 -348 l-12 -38 -15 43 c-8 24 -22 53 -32 65 l-18
23 -11 -45 c-14 -55 -14 -68 0 -60 15 10 47 -23 54 -55 3 -15 -1 -77 -9 -136
-9 -60 -19 -129 -22 -154 -6 -44 -6 -44 -20 -20 -17 33 -18 17 0 -18 7 -15 16
-63 20 -107 14 -162 55 -283 151 -449 138 -239 216 -337 313 -389 131 -71 372
-101 512 -63 111 30 346 164 493 283 80 64 206 212 261 307 30 51 43 65 55 60
54 -23 98 -5 136 53 16 24 13 23 -23 -10 -54 -48 -102 -52 -102 -9 0 15 22 64
49 110 27 46 57 104 66 130 22 58 41 81 82 98 42 18 51 18 56 -4 3 -9 5 9 6
41 1 45 -2 57 -14 57 -30 0 -93 -40 -129 -81 -20 -24 -36 -40 -36 -38 0 41 26
129 45 149 26 29 85 147 85 171 0 17 24 76 63 159 19 39 22 63 22 170 l0 126
42 64 c66 103 86 155 87 236 1 61 -3 76 -26 111 -33 51 -68 63 -68 25 0 -15
-5 -34 -10 -42 -7 -10 -8 5 -4 50 6 64 5 67 -49 175 -54 111 -115 183 -166
200 -25 8 -28 25 -4 25 22 0 89 72 97 106 5 18 2 32 -8 42 -14 14 -21 13 -74
-12 -42 -20 -66 -26 -83 -21 -13 4 -63 45 -111 91 -83 80 -185 144 -229 144
-10 0 -49 25 -88 55 -124 98 -197 116 -282 72z m-350 -903 c142 -34 201 -45
376 -64 79 -9 133 -17 237 -36 24 -4 59 -16 238 -86 132 -51 170 -100 190
-247 13 -98 3 -167 -40 -275 -58 -143 -80 -253 -80 -395 0 -185 -11 -237 -76
-369 -49 -100 -60 -115 -91 -129 -49 -20 -104 -4 -169 48 -92 74 -139 89 -321
110 -91 10 -168 20 -171 23 -3 3 1 6 10 6 36 0 83 85 71 130 -8 28 -16 25 -38
-16 -24 -45 -44 -55 -110 -55 -114 0 -165 61 -131 156 8 20 7 20 -8 0 -43 -52
-37 -137 11 -175 l27 -21 -65 8 c-116 13 -183 8 -264 -22 -86 -31 -139 -31
-202 2 -68 36 -78 66 -78 243 0 148 2 161 37 285 37 130 81 352 93 475 29 291
176 467 370 443 22 -2 105 -20 184 -39z m41 -1514 c52 -6 156 -17 230 -24
l135 -14 -110 -1 c-60 0 -153 4 -205 9 -122 13 -340 51 -340 60 0 3 44 1 98
-6 53 -7 140 -17 192 -24z m-336 -20 c22 -51 138 -170 189 -193 66 -31 150
-42 225 -29 113 19 236 78 314 150 29 27 26 28 43 -24 17 -54 -50 -151 -143
-208 -101 -61 -189 -77 -232 -41 -20 16 -209 39 -259 30 -106 -18 -211 102
-211 241 0 40 32 114 49 114 4 0 15 -18 25 -40z m221 -30 c50 -11 102 -20 117
-20 15 0 30 -5 33 -11 5 -7 -8 -8 -41 -4 -70 10 -202 43 -222 55 -15 10 -15
10 3 6 11 -3 61 -15 110 -26z m15 -150 c13 -9 13 -10 0 -10 -8 0 -22 5 -30 10
-13 9 -13 10 0 10 8 0 22 -5 30 -10z m106 -21 c4 -8 -6 -10 -35 -6 -56 6 -64
17 -13 17 22 0 44 -5 48 -11z"/>
<path d="M1570 2608 c-58 -25 -94 -68 -74 -88 8 -8 29 -5 75 10 100 34 189 16
287 -57 29 -21 38 -24 58 -14 34 15 30 44 -13 81 -93 82 -231 110 -333 68z"/>
<path d="M1554 2307 c-54 -22 -94 -57 -94 -83 0 -29 11 -31 28 -3 14 22 85 58
114 59 16 0 16 -3 -2 -32 -21 -36 -26 -100 -10 -142 7 -19 22 -29 66 -42 55
-16 59 -16 100 4 42 21 63 16 48 -10 -4 -7 3 -4 15 8 12 11 28 38 36 59 l13
39 21 -34 c11 -19 21 -43 21 -53 0 -17 1 -17 21 2 28 26 23 75 -8 79 -13 2
-39 25 -60 52 -60 76 -111 103 -202 107 -44 1 -89 -2 -107 -10z m150 -60 c13
-21 -15 -53 -38 -44 -26 10 -31 38 -11 54 22 16 35 13 49 -10z"/>
<path d="M2306 2294 c-3 -9 0 -29 8 -45 13 -26 13 -28 -7 -31 -12 -2 -23 -10
-25 -19 -3 -14 16 -17 145 -22 131 -5 191 -14 297 -42 20 -6 27 -5 22 3 -4 7
11 12 46 14 46 3 53 6 56 25 3 19 -6 25 -65 43 -184 58 -333 90 -423 90 -35 0
-50 -4 -54 -16z"/>
<path d="M2300 2025 c-7 -8 -9 -22 -6 -31 5 -13 14 -14 49 -7 66 13 265 7 277
-8 3 -4 22 -10 43 -13 21 -3 47 -11 58 -17 11 -6 25 -8 32 -6 26 9 -187 67
-280 77 -54 6 -112 12 -129 15 -21 4 -35 0 -44 -10z"/>
<path d="M1788 1294 c16 -30 80 -84 118 -100 38 -16 153 -35 211 -36 51 0 145
48 206 104 l42 39 -47 -26 c-81 -45 -213 -85 -283 -85 -83 0 -135 20 -202 77
-34 29 -52 39 -45 27z"/>
</g>
</svg>
