<?xml version="1.0" standalone="no"?>
<!DOCTYPE svg PUBLIC "-//W3C//DTD SVG 20010904//EN"
 "http://www.w3.org/TR/2001/REC-SVG-20010904/DTD/svg10.dtd">
<svg version="1.0" xmlns="http://www.w3.org/2000/svg"
 width="500.000000pt" height="500.000000pt" viewBox="0 0 500.000000 500.000000"
 preserveAspectRatio="xMidYMid meet">

<g transform="translate(0.000000,500.000000) scale(0.100000,-0.100000)"
fill="#000000" stroke="none">
<path d="M2585 4883 c-48 -21 -128 -67 -170 -99 -16 -12 -64 -39 -105 -59 -41
-21 -86 -46 -99 -56 -29 -23 -84 -25 -101 -4 -7 9 -15 13 -18 10 -3 -3 -10 -1
-16 4 -13 11 -216 -13 -246 -29 -10 -5 -28 -10 -40 -10 -17 0 -163 -55 -265
-99 -259 -114 -365 -210 -365 -335 0 -18 -14 -49 -38 -80 -42 -57 -58 -93 -77
-181 -12 -51 -11 -65 2 -100 8 -22 23 -69 34 -103 22 -67 21 -70 -20 -142 -14
-24 -29 -61 -45 -113 -18 -54 -22 -217 -6 -233 18 -18 14 -86 -8 -168 -17 -61
-22 -108 -22 -200 0 -67 -5 -191 -11 -276 -6 -85 -10 -164 -10 -175 3 -55 -1
-92 -15 -142 -17 -58 -24 -59 -43 -4 -6 19 -23 55 -37 79 l-27 45 -12 -24 c-7
-13 -16 -44 -20 -69 -6 -40 -4 -46 16 -55 63 -28 81 -110 56 -252 -9 -48 -19
-117 -22 -153 -3 -36 -11 -91 -17 -123 -10 -51 -12 -55 -24 -40 -12 16 -13 14
-3 -12 5 -16 14 -34 18 -40 5 -5 11 -65 14 -131 7 -142 34 -277 77 -379 4 -11
19 -47 31 -80 25 -63 31 -76 98 -195 48 -86 53 -94 103 -173 21 -32 38 -60 38
-62 0 -2 28 -46 62 -97 154 -234 281 -328 519 -387 175 -42 353 -52 484 -26
109 21 129 26 150 35 196 79 480 247 660 389 73 57 285 269 285 285 0 5 20 33
45 62 25 28 45 55 45 59 0 3 12 23 27 42 16 20 39 59 54 87 27 55 19 52 119
40 42 -5 48 -2 90 34 25 22 42 43 39 46 -4 4 -13 0 -22 -8 -8 -8 -34 -25 -57
-37 -33 -17 -48 -20 -69 -13 -22 9 -26 15 -24 45 2 42 35 114 86 190 21 31 56
100 78 155 48 116 73 147 146 174 66 25 63 25 64 -2 1 -13 5 2 10 32 5 30 6
67 3 82 -5 24 -9 27 -37 21 -56 -10 -100 -39 -164 -106 -35 -36 -63 -59 -63
-51 0 8 7 50 16 92 13 65 21 83 54 117 21 22 42 54 46 70 4 17 12 37 19 45 22
26 42 74 55 130 7 30 23 76 36 102 13 26 24 52 24 58 0 6 17 46 38 88 l37 77
0 190 c1 210 -1 205 85 325 14 19 37 60 52 90 87 177 88 325 5 435 -17 22 -31
40 -31 41 -1 1 -13 4 -28 8 -25 6 -26 4 -33 -44 -12 -85 -22 -64 -21 43 l1
102 -74 150 c-64 129 -84 159 -141 216 -36 37 -83 74 -103 84 -20 9 -37 21
-37 25 0 4 14 13 31 21 17 7 53 34 80 61 38 38 49 57 54 92 8 48 -6 86 -31 86
-9 0 -51 -18 -93 -40 l-77 -40 -50 17 c-39 13 -72 39 -161 127 -116 115 -158
151 -189 163 -11 3 -31 15 -46 25 -16 11 -28 16 -28 12 0 -3 -6 -2 -12 4 -12
9 -86 28 -99 25 -3 -1 -53 35 -110 80 -160 125 -189 139 -289 144 -55 2 -86
-2 -115 -14z m-744 -1358 c68 -14 151 -34 184 -44 126 -39 372 -80 630 -106
193 -19 342 -49 420 -84 37 -17 97 -40 131 -51 78 -24 203 -81 266 -121 84
-54 126 -163 143 -369 7 -90 -12 -200 -50 -292 -114 -272 -143 -409 -148 -723
-4 -186 -9 -255 -22 -305 -23 -85 -147 -329 -187 -369 -39 -38 -101 -49 -172
-31 -57 15 -88 34 -161 101 -98 89 -180 114 -470 144 -162 16 -253 34 -225 43
50 16 100 99 100 165 0 73 -18 75 -61 7 -35 -54 -42 -60 -94 -76 -66 -19 -126
-13 -192 18 -100 47 -121 108 -77 223 5 14 -1 11 -20 -10 -68 -77 -59 -195 19
-264 41 -36 48 -35 -120 -15 -71 8 -148 12 -170 8 -60 -9 -164 -39 -218 -63
-89 -38 -218 -21 -298 41 -57 42 -77 98 -90 242 -16 171 -3 281 61 516 65 241
120 526 155 810 25 211 97 381 205 491 72 73 105 93 195 120 82 24 122 23 266
-6z m64 -2340 c124 -19 552 -64 620 -65 19 -1 19 -1 1 -12 -20 -11 -223 -5
-401 13 -153 15 -495 77 -495 89 0 8 150 -6 275 -25z m-347 -45 c42 -89 151
-209 252 -278 133 -89 336 -103 525 -35 147 54 209 89 357 203 l28 22 9 -25
c28 -72 4 -154 -71 -249 -59 -76 -208 -162 -330 -193 -57 -14 -73 -15 -103 -4
-20 7 -43 21 -51 31 -15 15 -13 17 23 23 84 14 232 96 316 177 29 27 48 48 42
46 -5 -2 -57 -27 -115 -55 -189 -92 -323 -126 -438 -113 -129 16 -162 33 -309
164 -47 40 -22 -7 34 -65 77 -81 154 -115 308 -135 28 -4 57 -11 65 -16 10 -6
2 -7 -25 -3 -22 3 -58 7 -80 10 -22 3 -71 9 -108 14 -41 6 -80 6 -100 0 -77
-22 -140 -3 -213 64 -81 74 -116 152 -122 273 -4 87 -3 92 28 142 17 29 37 52
43 52 7 -1 22 -23 35 -50z m357 -56 c39 -8 89 -19 112 -25 23 -5 53 -9 67 -9
14 0 28 -5 32 -12 5 -8 -3 -9 -32 -4 -21 4 -73 14 -114 21 -119 21 -184 37
-195 47 -10 9 21 5 130 -18z m19 -234 c7 -7 1 -10 -17 -10 -15 0 -27 4 -27 9
0 5 -6 12 -12 14 -7 2 0 3 17 1 16 -3 34 -9 39 -14z m146 -25 c0 -13 -9 -15
-52 -9 -84 10 -92 23 -15 24 54 0 67 -3 67 -15z"/>
<path d="M1379 2877 c-89 -30 -146 -71 -154 -109 -5 -20 -2 -35 7 -44 11 -11
26 -9 98 16 140 49 255 36 383 -43 142 -87 131 -83 161 -64 31 21 35 70 8 103
-23 29 -102 80 -168 111 -127 58 -227 67 -335 30z"/>
<path d="M1400 2420 c-84 -13 -127 -30 -179 -71 -54 -43 -67 -83 -36 -109 12
-10 15 -10 15 2 0 18 45 61 85 81 39 19 106 38 116 31 4 -2 -5 -30 -22 -60
-32 -61 -38 -124 -18 -185 17 -49 30 -59 95 -76 102 -26 107 -26 168 1 72 32
80 32 74 1 -11 -57 44 0 76 79 21 52 24 55 39 38 8 -9 26 -40 39 -68 l24 -52
27 29 c29 31 33 53 17 93 -7 20 -17 26 -39 26 -24 0 -38 10 -74 58 -92 117
-165 165 -282 182 -38 5 -72 9 -75 8 -3 0 -25 -4 -50 -8z m134 -96 c19 -18 21
-55 4 -72 -27 -27 -88 0 -88 39 0 23 26 49 50 49 10 0 26 -7 34 -16z"/>
<path d="M2479 2391 c-21 -17 -22 -21 -10 -57 7 -22 15 -45 17 -51 4 -8 -2
-13 -13 -13 -25 -1 -53 -24 -53 -44 0 -20 -5 -20 185 -21 154 0 339 -17 380
-34 11 -5 43 -14 70 -20 28 -6 61 -14 74 -17 20 -6 23 -4 18 9 -5 14 3 16 59
14 59 -2 68 1 85 22 11 13 18 29 16 35 -13 42 -381 148 -632 182 -137 18 -169
17 -196 -5z"/>
<path d="M2463 1979 c-17 -22 -21 -43 -11 -61 11 -22 29 -22 110 -2 67 17 204
15 305 -6 146 -30 197 -42 234 -58 41 -17 62 -18 66 -4 3 7 -4 12 -16 12 -12
0 -29 4 -39 9 -33 17 -208 70 -267 81 -33 6 -112 15 -175 20 -63 5 -133 12
-155 16 -29 4 -44 2 -52 -7z"/>
</g>
</svg>
