<svg xmlns="http://www.w3.org/2000/svg" width="75" height="13" viewBox="0 0 75 13">
    <g fill="#111">
        <path d="M15.695 12.547h-3.037L18.038.4h2.55l5.414 12.148h-3.037l-1.042-2.498h-5.206l-1.022 2.498zm1.943-4.737h3.35l-1.683-4.062-1.667 4.062zM32.821.399H27.13v12.148h2.76V2.794h2.934c1.51 0 2.342.625 2.342 1.84v.329c0 1.214-.834 1.875-2.342 1.875H30.81V9.2h2.013c3.14 0 5.102-1.561 5.102-4.026V4.43c-.002-2.467-1.962-4.03-5.105-4.03zM52.117.399L61.332.399 61.332 2.794 54.875 2.794 54.875 5.206 60.255 5.206 60.255 7.565 54.875 7.565 54.875 10.169 61.486 10.169 61.486 12.547 52.115 12.547zM63.154.399L65.966.399 71.674 8.173 71.588.399 74.329.399 74.329 12.547 71.465 12.547 65.807 4.859 65.877 12.547 63.152 12.547zM45.316.399h-5.692v12.148h2.76V2.794h2.934c1.51 0 2.343.625 2.343 1.84v.329c0 1.214-.833 1.875-2.343 1.875h-2.012V9.2h2.012c3.143 0 5.103-1.561 5.103-4.026V4.43c-.004-2.467-1.964-4.03-5.105-4.03zM10.02 8.103c-.619 1.367-1.992 2.284-3.56 2.284-2.43 0-3.674-2.146-3.674-3.887 0-2.221 1.618-3.892 3.861-3.892 1.707 0 3.073 1.276 3.546 2.752l2.644-.915c-.348-1.163-1.003-2.122-1.852-2.844l-.025-.022-.061-.05C9.76.525 8.265.029 6.582.029c-1.517 0-2.915.53-3.808 1.206C1.207 2.315.058 4.086.007 6.433c-.017.777.097 1.495.31 2.148 0 .002 0 .002.003.004.3.91 2.012 4.389 6.194 4.389 1.683 0 3.512-.47 4.725-1.836.6-.582 1.077-1.3 1.402-2.137l-2.62-.898z"/>
    </g>
</svg>
