<?xml version="1.0" encoding="UTF-8"?>
<svg width="136px" height="41px" viewBox="0 0 136 41" version="1.1" xmlns="http://www.w3.org/2000/svg" xmlns:xlink="http://www.w3.org/1999/xlink">
    <title>Bryant</title>
    <g id="Page-1" stroke="none" stroke-width="1" fill="none" fill-rule="evenodd">
        <path d="M14.1134222,32 C21.2922082,32 25.0680632,28.2707605 25.0680632,23.2362872 C25.0680632,18.4970454 21.6806707,15.6535003 18.0912777,15.4825768 L18.0912777,15.1718069 C21.3854392,14.4414975 23.8249834,12.1107228 23.8249834,8.35040631 C23.8249834,3.56454897 20.2822059,0.177156448 13.2898819,0.177156448 L0.610467635,0.177156448 L0.610467635,32 L14.1134222,32 Z M12.295418,13.5091876 L7.21432921,13.5091876 L7.21432921,5.5379382 L12.419726,5.5379382 C15.4497331,5.5379382 17.1589678,7.10732648 17.1589678,9.42256266 C17.1589678,11.9708763 15.0768091,13.5091876 12.295418,13.5091876 Z M12.7926499,26.5770643 L7.21432921,26.5770643 L7.21432921,18.0308905 L12.9480349,18.0308905 C16.2111195,18.0308905 18.2622012,19.9110487 18.2622012,22.5836703 C18.2622012,24.9921375 16.5995819,26.5770643 12.7926499,26.5770643 Z M33.4636414,32 L33.4636414,18.4348914 C33.4636414,15.4981153 35.6390311,13.4470336 38.5758072,13.4470336 C39.4925786,13.4470336 40.7511969,13.6179571 41.3571983,13.804419 L41.3571983,7.99302086 C40.7667354,7.88425137 39.9276565,7.79102038 39.2750396,7.79102038 C36.602418,7.79102038 34.3959513,9.34487017 33.5257954,12.2816463 L33.2771794,12.2816463 L33.2771794,8.13286734 L26.9685493,8.13286734 L26.9685493,32 L33.4636414,32 Z M46.9712682,40.9501747 C52.0057415,40.9501747 54.6162092,38.4795536 55.9680585,34.6260061 L65.2756187,8.13286734 L58.3920641,8.13286734 L53.3420523,25.7224469 L53.0934364,25.7224469 L48.0745016,8.13286734 L41.2375625,8.13286734 L49.8148133,32.6681554 L49.4263509,33.6781578 C48.6338875,35.744778 47.5928082,35.8535475 46.2875743,35.8535475 C45.4951109,35.8535475 44.5006471,35.838009 43.6771067,35.775855 L43.6615682,40.8414053 C44.5161856,40.9190978 45.6971114,40.9501747 46.9712682,40.9501747 Z M72.4746874,32.4506164 C76.017465,32.4506164 78.2860856,30.8967667 79.451473,28.6903 L79.6379349,28.6903 L79.6379349,32 L85.8067186,32 L85.8067186,15.9176547 C85.8067186,10.1684106 80.8965533,7.82209738 75.675618,7.82209738 C69.3514494,7.82209738 65.7465179,11.0851819 65.3735939,15.2339608 L71.5423776,15.2339608 C71.899763,13.6024186 73.2982278,12.5924162 75.520233,12.5924162 C77.9442387,12.5924162 79.3116265,13.7422651 79.3116265,15.7622698 L79.327165,17.6890435 C78.7762546,17.7059946 77.5688748,17.7553068 76.3076998,17.8142854 L75.6754195,17.8444752 C74.8338424,17.885522 74.0129987,17.9291839 73.3914588,17.9687365 C68.8231405,18.2639679 64.5345151,19.9887412 64.5345151,25.3339844 C64.5345151,30.0421493 67.9063691,32.4506164 72.4746874,32.4506164 Z M74.3237687,27.9289136 C72.24161,27.9289136 70.7499142,26.9810652 70.7499142,25.131984 C70.7499142,23.2984412 72.1949945,22.2262849 74.4636152,22.0398229 C75.5668485,21.9310534 78.3793166,21.7756684 79.3427035,21.7290529 L79.358242,23.4693647 C79.358242,25.9866013 77.2760833,27.9289136 74.3237687,27.9289136 Z M95.1034895,32 L95.1034895,18.1862754 C95.119028,15.0474989 96.9836477,13.2294946 99.7028848,13.2294946 C102.391045,13.2294946 103.99151,15.0008834 103.975972,17.9376595 L103.975972,32 L110.471119,32 L110.471119,16.8033491 C110.486602,11.2250284 107.223518,7.82209738 102.251198,7.82209738 C98.708421,7.82209738 96.1601073,9.56240914 95.087951,12.3282617 L94.808258,12.3282617 L94.808258,8.13286734 L88.6083974,8.13286734 L88.6083974,32 L95.1034895,32 Z M122.828939,32.3263085 C124.413866,32.3263085 125.563715,32.2020005 126.262947,32.093231 L126.262947,26.9655267 C125.486022,27.0121422 124.351712,27.0898347 123.714633,27.0742962 C122.378323,27.0276807 121.430474,26.5770643 121.430474,24.6813675 L121.430474,13.0274942 L125.936639,13.0274942 L125.936639,8.13286734 L121.430474,8.13286734 L121.430474,2.41470014 L114.935382,2.41470014 L114.935382,8.13286734 L111.641221,8.13286734 L111.641221,13.0274942 L114.935382,13.0274942 L114.935382,25.5670619 C114.904305,30.2130727 118.105236,32.3263085 122.828939,32.3263085 Z M131.690537,32.3884624 C133.663926,32.3884624 135.373161,30.7413817 135.388699,28.7058385 C135.373161,26.6858337 133.663926,25.038753 131.690537,25.038753 C129.654993,25.038753 127.976836,26.6858337 128.007913,28.7058385 C127.976836,30.7413817 129.654993,32.3884624 131.690537,32.3884624 Z" id="Bryant." fill="#000000" fill-rule="nonzero"></path>
    </g>
</svg>