<?xml version="1.0" encoding="UTF-8"?>
<svg width="163px" height="163px" viewBox="0 0 163 163" version="1.1" xmlns="http://www.w3.org/2000/svg" xmlns:xlink="http://www.w3.org/1999/xlink">
    <title>Combined Shape</title>
    <g id="Page-1" stroke="none" stroke-width="1" fill="none" fill-rule="evenodd">
        <path d="M163,0 L163,163 L0,163 L0,0 L163,0 Z M118.189636,99.504 C110.125636,99.504 104.455636,105.174 104.455636,113.364 C104.455636,121.428 110.125636,127.098 118.189636,127.098 C126.253636,127.098 131.797636,121.428 131.797636,113.364 C131.797636,105.174 126.253636,99.504 118.189636,99.504 Z M67.288,36 L31,36 L31,126.468 L68.422,126.468 C89.464,126.468 102.064,116.262 102.064,99.252 C102.064,89.676 96.898,82.998 87.7,79.092 C95.26,74.556 99.418,68.382 99.418,60.444 C99.418,44.694 87.07,36 67.288,36 Z M66.532,89.172 C75.478,89.172 79.636,92.826 79.636,98.37 C79.636,104.166 75.478,107.694 66.532,107.694 L52.546,107.694 L52.546,89.172 L66.532,89.172 Z M65.398,54.774 C73.336,54.774 76.99,57.798 76.99,62.46 C76.99,67.374 73.336,70.398 65.398,70.398 L52.546,70.398 L52.546,54.774 L65.398,54.774 Z" id="Combined-Shape" fill="#000000"></path>
    </g>
</svg>