<?xml version="1.0" standalone="no"?>
<!DOCTYPE svg PUBLIC "-//W3C//DTD SVG 20010904//EN"
 "http://www.w3.org/TR/2001/REC-SVG-20010904/DTD/svg10.dtd">
<svg version="1.0" xmlns="http://www.w3.org/2000/svg"
 width="1201.000000pt" height="1201.000000pt" viewBox="0 0 1201.000000 1201.000000"
 preserveAspectRatio="xMidYMid meet">
<metadata>
Created by potrace 1.14, written by Peter Selinger 2001-2017
</metadata>
<g transform="translate(0.000000,1201.000000) scale(0.100000,-0.100000)"
fill="#000000" stroke="none">
<path d="M7949 10836 c-2 -2 -22 -6 -44 -10 -202 -29 -505 -196 -800 -437
-114 -94 -348 -292 -365 -309 -3 -3 -39 -34 -80 -70 -41 -36 -77 -67 -80 -70
-3 -3 -59 -53 -125 -110 -66 -58 -122 -107 -125 -110 -6 -6 -191 -166 -284
-245 -33 -27 -78 -66 -101 -85 -22 -19 -58 -48 -79 -65 -21 -16 -44 -35 -50
-41 -22 -21 -263 -212 -387 -306 -268 -204 -461 -317 -745 -437 -170 -71 -549
-195 -694 -226 -8 -2 -76 -17 -150 -35 -112 -26 -573 -121 -660 -136 -280 -49
-643 -135 -817 -194 -420 -143 -614 -356 -615 -675 -1 -190 59 -348 207 -550
66 -89 140 -171 331 -365 309 -314 384 -434 387 -615 1 -92 -8 -207 -23 -286
-6 -30 -13 -67 -16 -84 -10 -59 -66 -260 -101 -359 -38 -110 -119 -315 -218
-551 -240 -572 -314 -846 -319 -1180 -1 -71 1 -152 5 -180 4 -27 10 -70 13
-95 43 -392 277 -746 588 -890 153 -70 259 -93 453 -95 177 -3 269 5 437 34
165 29 162 28 306 77 275 92 509 239 704 441 222 229 391 545 484 904 24 96
28 111 40 179 4 19 8 44 10 55 33 172 43 338 49 810 3 215 7 424 9 465 3 41 8
122 11 179 6 105 10 155 20 246 3 28 8 73 10 100 3 28 14 107 25 177 64 410
165 719 362 1113 45 88 86 170 92 182 6 13 14 23 19 23 4 0 7 4 7 10 0 18 114
200 214 340 202 285 449 547 691 731 234 178 506 311 715 350 96 17 224 19
293 3 200 -47 363 -233 395 -454 9 -62 9 -228 -1 -325 -7 -69 -14 -120 -42
-315 -3 -19 -7 -42 -10 -50 -2 -8 -6 -33 -10 -55 -3 -22 -7 -47 -10 -55 -2 -8
-6 -26 -9 -40 -46 -260 -195 -754 -325 -1077 -84 -211 -237 -540 -321 -688
-24 -42 -133 -227 -153 -259 -302 -480 -727 -1100 -1036 -1511 -264 -351 -335
-435 -591 -694 -194 -196 -253 -310 -226 -438 26 -123 157 -212 294 -199 132
11 218 72 272 191 25 54 32 75 44 140 29 145 87 267 163 343 105 105 237 148
423 138 260 -14 448 -118 611 -339 71 -96 130 -198 221 -387 259 -537 342
-674 514 -847 156 -158 355 -261 604 -314 121 -26 378 -37 476 -20 253 44 439
192 518 409 33 92 37 117 41 225 5 192 -53 333 -198 477 -110 110 -341 247
-552 329 -44 18 -89 36 -100 41 -27 12 -136 51 -155 55 -38 9 -227 88 -316
133 -257 130 -399 281 -429 459 -7 41 -7 168 0 193 2 8 6 26 9 40 2 14 13 49
25 77 73 185 252 339 726 628 637 388 1066 770 1361 1211 41 62 74 115 74 119
0 4 8 19 19 33 32 46 116 214 159 318 118 288 185 571 218 909 4 39 8 84 10
100 5 46 5 457 0 485 -2 14 -7 50 -11 81 -3 31 -8 67 -10 80 -3 13 -8 40 -11
59 -8 48 -44 190 -54 215 -4 11 -23 58 -40 105 -153 401 -438 691 -855 870
-122 52 -352 105 -515 117 -144 11 -594 3 -620 -12 -3 -1 -37 -6 -76 -9 -39
-4 -80 -8 -90 -10 -11 -2 -55 -9 -99 -16 -44 -7 -87 -14 -95 -15 -8 -2 -58
-13 -110 -24 -103 -22 -290 -70 -302 -77 -4 -3 -16 -7 -25 -9 -55 -11 -330
-113 -458 -170 -233 -104 -591 -308 -737 -419 -14 -12 -57 -43 -95 -71 -63
-46 -211 -162 -223 -175 -3 -3 -34 -30 -70 -60 -178 -150 -455 -429 -631 -635
-19 -22 -40 -46 -47 -53 -83 -89 -365 -463 -525 -699 -89 -131 -314 -488 -330
-523 -4 -8 -16 -28 -27 -45 -21 -34 -213 -377 -314 -562 -36 -67 -79 -145 -96
-173 -16 -28 -30 -53 -30 -55 0 -8 -186 -314 -258 -425 -170 -261 -361 -490
-492 -588 -89 -66 -181 -104 -265 -110 -87 -5 -129 12 -151 63 -51 123 35 345
364 935 257 463 613 1076 772 1330 14 22 50 82 81 133 224 369 554 869 813
1232 356 499 718 918 871 1006 171 100 449 192 1120 374 658 177 1082 321
1390 471 248 121 354 191 485 323 107 107 159 194 185 303 16 71 14 187 -5
258 -49 183 -219 325 -444 372 -51 10 -259 21 -267 14z"/>
</g>
</svg>
